<?xml version="1.0" standalone="no"?>
<!DOCTYPE svg PUBLIC "-//W3C//DTD SVG 20010904//EN"
 "http://www.w3.org/TR/2001/REC-SVG-20010904/DTD/svg10.dtd">
<svg version="1.0" xmlns="http://www.w3.org/2000/svg"
 width="1024.000000pt" height="1024.000000pt" viewBox="0 0 1024.000000 1024.000000"
 preserveAspectRatio="xMidYMid meet">
<metadata>
Created by potrace 1.14, written by Peter Selinger 2001-2017
</metadata>
<g transform="translate(0.000000,1024.000000) scale(0.100000,-0.100000)"
fill="#000000" stroke="none">
<path d="M630 7095 c0 -6 5 -16 11 -22 6 -6 13 -35 16 -65 5 -56 -9 -99 -46
-142 -12 -13 -16 -39 -16 -100 0 -72 3 -87 26 -122 l26 -39 514 1 c283 1 515
2 516 3 1 1 -7 22 -19 48 -27 61 -25 114 7 175 42 81 26 199 -35 253 -21 19
-37 20 -511 21 -352 0 -489 -3 -489 -11z"/>
<path d="M2710 7101 c0 -4 4 -11 9 -16 15 -17 28 -98 20 -134 -4 -18 -16 -46
-27 -60 -43 -59 -53 -144 -23 -213 33 -78 -6 -73 566 -73 l512 0 -20 38 c-33
64 -34 118 -2 179 36 68 38 145 6 211 -12 25 -29 51 -38 59 -13 10 -115 13
-510 14 -271 1 -493 -2 -493 -5z"/>
<path d="M4090 7107 c0 -1 9 -26 20 -55 27 -70 25 -117 -5 -175 -43 -81 -31
-192 28 -255 l22 -23 1317 3 c725 1 1318 6 1318 11 0 5 -5 18 -12 30 -6 12
-13 45 -14 74 -2 42 3 59 27 98 60 95 57 215 -7 279 -14 15 -136 16 -1355 16
-736 -1 -1339 -2 -1339 -3z"/>
<path d="M7175 7040 c-174 -175 -199 -319 -71 -408 l39 -27 442 -2 441 -3 1
44 c2 44 28 109 61 146 16 19 31 20 512 20 l495 0 28 -78 c15 -42 38 -90 51
-105 l23 -29 503 0 c410 0 504 3 511 14 19 29 31 95 26 146 -8 84 -57 172
-151 268 l-81 84 -1381 0 -1381 -1 -68 -69z"/>
<path d="M540 6483 c19 -63 17 -102 -8 -147 -10 -16 -24 -40 -32 -55 -8 -15
-14 -52 -14 -91 0 -53 5 -73 27 -107 15 -24 35 -43 45 -44 14 0 1261 0 1300 1
9 0 7 11 -7 38 -10 20 -21 52 -24 69 -6 35 11 113 23 113 14 0 32 96 26 134
-8 50 -30 100 -55 125 -21 21 -25 21 -660 21 l-639 0 18 -57z"/>
<path d="M2610 6531 c0 -5 6 -24 14 -42 22 -52 15 -120 -17 -167 -55 -84 -53
-193 4 -261 l20 -24 487 1 c268 1 499 1 515 2 l27 0 -20 40 c-32 62 -32 112
-2 173 47 92 34 207 -30 267 -21 20 -33 20 -510 20 -273 0 -488 -4 -488 -9z"/>
<path d="M3999 6489 c21 -57 18 -108 -7 -151 -9 -17 -22 -40 -29 -52 -31 -56
-20 -169 21 -221 l23 -29 604 2 c332 1 609 2 615 2 7 0 3 16 -9 42 -27 54 -27
121 1 175 43 83 32 196 -24 254 l-28 29 -592 0 -593 0 18 -51z"/>
<path d="M7010 6537 c0 -3 7 -21 15 -40 19 -46 19 -115 0 -147 -39 -68 -55
-109 -55 -149 0 -60 18 -116 47 -143 l23 -22 506 1 c278 1 508 3 510 5 2 2 -6
23 -17 45 -27 56 -26 107 5 173 47 100 23 231 -49 267 -19 9 -985 19 -985 10z"/>
<path d="M9125 6508 c13 -33 18 -69 16 -119 -1 -14 -15 -47 -32 -72 -50 -75
-48 -187 4 -251 l24 -29 512 -1 c451 -1 511 1 507 14 -3 8 -12 33 -20 55 -22
57 -20 89 10 151 44 93 33 194 -29 262 l-20 22 -493 0 -493 0 14 -32z"/>
<path d="M377 5956 c26 -79 30 -112 17 -148 -7 -21 -23 -50 -34 -67 -15 -20
-24 -49 -27 -92 -4 -57 -2 -70 24 -119 l29 -55 587 0 587 0 25 -25 c35 -36 64
-116 60 -168 -2 -26 -14 -60 -29 -82 -53 -81 -54 -190 -2 -255 l24 -30 871 0
c771 0 870 2 865 15 -42 96 -43 142 -8 211 23 44 26 59 22 118 -3 42 -12 78
-24 97 -41 63 6 59 -620 60 -633 0 -595 -4 -647 66 -53 72 -60 141 -21 214 44
82 33 188 -26 254 l-22 25 -829 1 -830 1 8 -21z"/>
<path d="M2464 5951 c33 -63 27 -154 -14 -201 -11 -12 -23 -39 -26 -59 -4 -20
-8 -43 -9 -52 -6 -31 16 -105 39 -134 l24 -29 516 -1 c284 0 516 1 516 2 0 1
-10 18 -22 39 -30 51 -30 128 1 179 25 43 34 130 18 182 -6 18 -23 47 -38 65
l-27 33 -496 1 -495 2 13 -27z"/>
<path d="M3840 5974 c0 -2 7 -22 16 -44 23 -57 15 -129 -20 -175 -26 -34 -46
-109 -40 -151 5 -34 35 -102 51 -116 23 -19 2693 -20 2693 0 0 7 -7 24 -16 38
-28 41 -26 119 3 171 33 60 35 142 3 207 -12 26 -32 53 -44 61 -17 11 -249 13
-1333 12 -722 0 -1313 -2 -1313 -3z"/>
<path d="M6860 5971 c0 -3 7 -24 15 -46 22 -63 19 -105 -15 -158 -54 -85 -55
-192 -2 -264 l20 -28 516 0 c284 0 516 0 516 1 0 0 -8 16 -17 34 -36 73 -34
158 5 196 13 14 17 35 17 93 -1 65 -5 82 -27 118 -15 23 -33 45 -40 49 -14 9
-988 14 -988 5z"/>
<path d="M8960 5975 c0 -1 7 -20 16 -41 23 -55 15 -128 -20 -180 -50 -76 -44
-199 12 -260 17 -18 38 -19 525 -18 278 0 509 2 512 5 2 3 -4 23 -15 44 -27
54 -26 115 5 173 41 78 30 181 -28 257 -15 19 -28 20 -511 21 -273 1 -496 1
-496 -1z"/>
<path d="M250 5411 c0 -4 6 -27 14 -52 8 -25 13 -59 11 -77 -3 -38 -24 -92
-36 -92 -15 0 -36 -93 -32 -139 4 -45 34 -114 55 -128 14 -8 1040 -12 1035 -3
-46 76 -53 146 -21 207 45 86 38 190 -17 255 l-27 33 -491 1 c-270 0 -491 -2
-491 -5z"/>
<path d="M6750 5361 c10 -31 16 -62 15 -71 -2 -8 -4 -22 -4 -31 -1 -9 -13 -33
-27 -54 -31 -46 -50 -127 -40 -176 3 -19 18 -53 32 -75 l26 -40 514 1 c283 0
514 3 514 6 0 3 -7 21 -17 39 -29 59 -28 118 2 175 45 82 36 177 -24 254 l-19
25 -494 1 -495 1 17 -55z"/>
<path d="M8845 5390 c24 -47 28 -112 10 -158 -10 -23 -21 -42 -25 -42 -11 0
-31 -61 -34 -103 -4 -48 12 -108 38 -142 l23 -30 509 0 c280 1 510 4 512 8 1
4 -4 20 -12 35 -29 56 -28 112 1 172 37 76 37 168 0 228 -15 22 -32 44 -39 49
-7 4 -234 8 -505 9 l-492 1 14 -27z"/>
<path d="M3726 5359 c31 -60 30 -107 -2 -174 -41 -88 -30 -191 28 -252 l21
-23 1320 0 1319 0 -7 23 c-4 12 -12 45 -17 73 -11 52 -6 69 49 169 33 59 16
170 -32 219 -14 14 -151 15 -1359 14 l-1343 -2 23 -47z"/>
<path d="M169 4805 c10 -27 17 -64 16 -80 -2 -33 -33 -105 -45 -105 -4 0 -11
-12 -15 -27 -22 -86 -12 -163 29 -210 l24 -28 515 0 514 0 -23 45 c-29 57 -26
129 6 183 40 68 27 184 -29 247 l-22 24 -493 1 -493 0 16 -50z"/>
<path d="M1869 4809 c25 -64 19 -121 -19 -180 -51 -79 -47 -194 9 -253 l22
-23 699 1 c385 1 701 3 701 6 1 3 -6 23 -15 45 -25 58 -24 114 3 165 44 85 37
185 -19 252 l-28 33 -685 0 -685 0 17 -46z"/>
<path d="M6645 4852 c-2 -2 4 -24 12 -49 21 -60 13 -119 -23 -173 -26 -38 -29
-52 -29 -120 0 -68 3 -81 28 -117 l28 -41 515 1 c283 1 514 2 514 3 0 1 -9 21
-20 45 -27 61 -26 120 5 177 43 80 27 202 -33 255 -19 18 -50 19 -507 21 -267
1 -488 0 -490 -2z"/>
<path d="M8740 4855 c1 0 9 -24 19 -53 21 -62 14 -125 -19 -169 -53 -73 -46
-208 14 -268 12 -12 1036 -16 1036 -4 0 3 -7 21 -16 39 -30 59 -30 113 1 172
45 85 35 191 -24 258 l-22 25 -495 0 c-272 0 -494 0 -494 0z"/>
<path d="M3609 4807 c22 -50 19 -113 -6 -158 -10 -17 -24 -43 -31 -56 -8 -13
-14 -52 -15 -86 -2 -51 3 -70 26 -109 l28 -48 618 0 619 0 -23 56 c-26 65 -24
108 10 172 40 74 23 194 -36 253 -18 18 -38 19 -614 19 l-594 0 18 -43z"/>
<path d="M40 4286 c0 -2 7 -21 16 -42 23 -55 15 -128 -21 -182 -48 -72 -44
-187 8 -248 l23 -26 512 -2 c282 -1 512 1 512 5 0 3 -9 24 -20 47 -27 56 -25
112 5 171 43 81 35 175 -21 248 l-25 33 -495 0 c-271 0 -494 -2 -494 -4z"/>
<path d="M2136 4259 c9 -18 17 -56 19 -86 2 -46 -2 -59 -26 -93 -34 -46 -47
-97 -42 -160 5 -58 46 -130 76 -131 12 0 245 -1 518 -2 l496 -2 -19 43 c-30
66 -30 110 -3 167 13 28 26 69 30 93 8 55 -16 138 -50 175 l-26 27 -495 0
-495 0 17 -31z"/>
<path d="M3450 4278 c0 -4 5 -19 12 -35 20 -49 18 -114 -6 -157 -11 -21 -27
-50 -35 -63 -23 -43 -18 -143 9 -191 13 -23 28 -43 34 -44 13 -2 2686 -4 2686
-2 0 1 -9 21 -20 45 -27 61 -26 122 5 175 39 66 35 163 -9 231 -11 18 -30 36
-41 40 -26 9 -2635 10 -2635 1z"/>
<path d="M6542 4263 c-26 -41 -28 -138 -2 -205 27 -73 97 -166 169 -226 l56
-47 1370 1 c754 1 1374 2 1378 3 16 2 126 120 161 173 87 131 78 234 -29 303
l-40 26 -437 -1 -438 -1 0 -42 c-1 -45 -21 -96 -56 -140 l-22 -27 -495 0 -495
0 -18 53 c-19 57 -47 112 -72 140 -15 17 -47 18 -514 16 l-499 -1 -17 -25z"/>
<path d="M715 3449 c-68 -18 -107 -82 -104 -169 3 -66 28 -109 82 -137 34 -17
100 -19 141 -3 115 43 120 253 8 299 -37 16 -91 20 -127 10z m89 -49 c55 -21
82 -109 52 -169 -20 -37 -35 -48 -75 -54 -68 -11 -116 38 -115 118 2 87 64
134 138 105z"/>
<path d="M1175 3449 c-42 -13 -73 -41 -90 -83 -34 -81 -5 -188 60 -219 60 -28
143 -20 181 17 20 21 34 54 28 70 -9 25 -43 19 -54 -8 -5 -14 -21 -33 -35 -42
-37 -24 -99 -5 -121 37 -20 39 -20 113 -1 142 35 54 126 61 149 12 14 -30 45
-39 58 -15 10 19 -15 62 -49 79 -27 15 -94 20 -126 10z"/>
<path d="M1469 3437 c-52 -27 -83 -80 -82 -146 0 -70 26 -116 83 -144 42 -21
55 -23 101 -16 82 13 131 71 132 158 1 127 -122 205 -234 148z m130 -43 c51
-36 61 -128 20 -185 -11 -16 -30 -30 -42 -30 -12 -1 -29 -2 -37 -3 -24 -2 -69
23 -82 47 -17 31 -18 97 -2 129 29 56 95 75 143 42z"/>
<path d="M2437 3445 c-21 -7 -40 -15 -42 -17 -1 -1 -14 -21 -29 -42 -49 -73
-29 -185 43 -233 69 -46 185 -21 226 50 25 43 25 133 -1 177 -37 63 -122 92
-197 65z m113 -52 c36 -21 47 -46 47 -103 0 -68 -28 -102 -97 -115 -97 -19
-145 162 -57 215 39 24 70 25 107 3z"/>
<path d="M5339 3437 c-109 -54 -111 -237 -3 -293 41 -22 126 -18 158 7 30 24
55 68 49 87 -6 17 -53 16 -53 -2 0 -47 -71 -76 -123 -49 -62 31 -72 145 -17
196 43 38 82 36 126 -7 37 -36 64 -38 64 -4 0 24 -52 78 -77 79 -10 0 -33 2
-51 3 -19 1 -51 -6 -73 -17z"/>
<path d="M5773 3439 c-110 -54 -112 -245 -3 -294 47 -21 98 -22 142 -1 38 18
71 66 62 90 -9 24 -43 19 -53 -7 -25 -64 -116 -71 -156 -11 -24 37 -24 118 1
151 36 47 104 56 136 18 32 -39 39 -44 53 -39 39 15 -14 102 -63 105 -9 0 -31
2 -49 4 -17 2 -49 -5 -70 -16z"/>
<path d="M6087 3436 c-56 -28 -81 -74 -81 -146 2 -106 56 -160 162 -160 110 0
179 100 145 211 -23 76 -64 109 -140 114 -29 1 -58 -5 -86 -19z m144 -52 c38
-35 45 -121 12 -170 -21 -33 -78 -49 -118 -34 -76 29 -85 177 -12 214 38 19
91 15 118 -10z"/>
<path d="M22 3433 c-4 -10 -8 -78 -8 -152 1 -115 3 -135 18 -145 33 -20 41 6
39 120 -1 59 1 105 4 103 2 -3 35 -55 73 -115 56 -90 73 -110 95 -112 37 -4
40 8 39 152 0 176 1 166 -26 166 -29 0 -32 -13 -31 -137 0 -51 -1 -93 -1 -93
-3 0 -64 97 -79 125 -39 70 -69 105 -91 105 -13 0 -27 -8 -32 -17z"/>
<path d="M353 3438 c-10 -14 -12 -276 -1 -294 4 -6 48 -10 115 -10 101 1 108
2 108 21 0 18 -8 20 -86 23 l-86 3 -1 44 c-1 29 3 45 11 46 7 0 43 2 82 2 56
2 70 5 73 19 5 25 -13 31 -92 29 l-73 -1 -1 40 c-2 35 1 40 21 41 158 4 152 3
152 24 0 19 -8 20 -106 23 -78 2 -108 0 -116 -10z"/>
<path d="M1756 3441 c-8 -13 -9 -288 -1 -301 3 -6 15 -10 26 -10 20 0 21 4 23
88 0 35 4 42 21 43 61 3 105 -12 105 -36 0 -27 32 -95 45 -95 28 0 33 24 15
79 -10 29 -23 57 -29 60 -7 5 -2 15 14 29 14 12 25 25 26 29 0 5 2 17 4 27 5
24 -20 73 -43 84 -24 13 -199 15 -206 3z m187 -63 c8 -12 8 -24 -1 -42 -11
-24 -17 -26 -75 -26 l-64 0 1 45 1 46 64 -3 c47 -2 67 -8 74 -20z"/>
<path d="M2073 3443 c-10 -3 -13 -44 -13 -154 0 -124 3 -151 15 -155 25 -10
47 16 42 50 -8 59 5 74 66 75 97 1 127 24 127 100 0 42 -17 66 -57 82 -25 9
-159 11 -180 2z m166 -52 c16 -10 18 -58 3 -73 -15 -15 -112 -19 -118 -4 -2 6
-6 28 -7 49 l-3 37 55 0 c31 0 62 -4 70 -9z"/>
<path d="M2706 3434 c-3 -9 -6 -73 -6 -144 0 -142 3 -160 31 -160 22 0 21 -2
24 68 2 29 5 56 9 59 11 11 85 6 101 -7 8 -7 20 -31 26 -54 6 -22 16 -47 21
-53 14 -17 35 -16 41 1 6 16 -18 102 -34 122 -8 9 -5 18 10 33 44 44 35 111
-19 138 -14 7 -62 13 -111 13 -70 0 -88 -3 -93 -16z m178 -40 c23 -9 21 -61
-3 -74 -11 -5 -42 -10 -70 -10 l-51 0 0 45 0 45 54 0 c30 0 61 -3 70 -6z"/>
<path d="M3102 3438 c-5 -7 -15 -29 -20 -48 -6 -19 -29 -80 -51 -135 -34 -85
-38 -102 -26 -114 21 -21 40 -7 54 38 l12 41 62 0 63 0 19 -42 c21 -45 51 -61
61 -33 7 16 -73 235 -103 283 -15 24 -54 30 -71 10z m57 -115 l21 -53 -40 0
c-22 0 -40 3 -40 8 0 10 33 102 36 99 1 -1 12 -26 23 -54z"/>
<path d="M3274 3435 c-10 -24 6 -35 52 -35 l44 0 0 -130 c0 -107 3 -132 15
-136 33 -13 42 12 43 128 0 62 1 119 1 126 1 7 16 12 39 12 45 0 67 13 59 34
-5 14 -25 16 -127 15 -93 0 -122 -4 -126 -14z"/>
<path d="M3572 3438 c-8 -8 -12 -56 -12 -150 0 -121 2 -138 18 -146 19 -11
207 -10 218 0 3 4 4 14 1 23 -5 12 -24 15 -92 15 l-85 0 0 45 c0 50 -5 47 90
46 53 -1 82 7 82 24 0 17 -30 25 -99 25 l-73 0 0 40 0 40 78 0 c83 0 108 9 99
34 -5 13 -24 16 -110 16 -67 0 -107 -4 -115 -12z"/>
<path d="M3962 3433 c-15 -30 -11 -281 4 -294 28 -23 44 -2 44 59 l0 59 43 0
c87 2 96 4 122 26 29 25 39 76 22 114 -17 39 -57 53 -146 53 -66 0 -82 -3 -89
-17z m172 -49 c37 -37 12 -73 -55 -78 -62 -5 -69 0 -69 50 l0 44 54 0 c36 0
60 -5 70 -16z"/>
<path d="M4257 3443 c-11 -10 -8 -217 3 -250 15 -42 59 -64 127 -64 40 0 64 5
82 19 45 33 51 58 49 182 -3 109 -4 115 -25 118 -28 4 -32 -11 -31 -124 0 -50
-3 -100 -6 -111 -7 -23 -45 -43 -72 -38 -11 2 -27 4 -36 4 -29 2 -40 40 -43
150 -1 58 -3 109 -4 114 -1 9 -35 9 -44 0z"/>
<path d="M4592 3438 c-13 -16 -13 -278 0 -295 12 -16 174 -10 210 7 18 9 31
25 37 47 12 41 6 61 -25 87 -22 18 -22 18 -3 37 36 36 16 102 -35 118 -47 15
-171 14 -184 -1z m166 -50 c16 -16 15 -43 -2 -57 -8 -7 -37 -13 -65 -14 l-51
-2 0 43 0 42 53 0 c29 0 58 -5 65 -12z m16 -134 c40 -40 6 -74 -75 -74 l-59 0
0 45 0 45 59 0 c41 0 65 -5 75 -16z"/>
<path d="M4899 3443 c-1 -4 -3 -72 -4 -151 -2 -123 0 -144 14 -151 19 -10 186
-9 196 1 4 4 5 14 2 23 -5 12 -23 15 -81 15 l-75 0 -3 133 c-3 128 -4 132 -25
135 -13 2 -24 0 -24 -5z"/>
<path d="M5149 3428 c-5 -104 -3 -266 3 -280 5 -10 15 -18 23 -18 25 0 31 32
29 160 -2 171 0 160 -29 160 -19 0 -25 -5 -26 -22z"/>
<path d="M6380 3435 c-16 -19 -18 -281 -2 -297 5 -5 18 -7 29 -4 16 5 18 17
18 106 0 55 2 96 6 92 3 -4 23 -51 43 -104 28 -74 42 -98 56 -98 25 0 32 13
71 117 18 51 35 91 36 89 2 -2 4 -44 4 -93 0 -97 7 -117 35 -111 17 3 19 15
21 149 3 163 -3 181 -54 163 -22 -8 -32 -26 -66 -127 -22 -65 -43 -114 -47
-110 -4 4 -24 55 -44 113 -21 58 -43 111 -48 118 -14 17 -43 15 -58 -3z"/>
<path d="M6772 3438 c-15 -15 -17 -275 -2 -298 7 -12 13 -13 27 -4 17 11 20
21 22 90 l1 32 60 1 c63 1 113 19 124 46 10 28 6 89 -8 107 -7 10 -25 22 -40
28 -38 14 -169 13 -184 -2z m170 -55 c16 -19 16 -49 0 -65 -15 -15 -111 -18
-119 -5 -6 10 -7 25 -4 72 2 23 103 21 123 -2z"/>
<path d="M7123 3442 c-7 -4 -19 -28 -28 -52 -8 -25 -19 -54 -24 -65 -64 -142
-73 -190 -36 -190 15 0 24 12 35 43 l15 43 64 -3 c63 -3 64 -3 76 -37 15 -44
39 -61 59 -41 13 13 7 33 -43 160 -51 127 -60 145 -82 148 -13 1 -29 -1 -36
-6z m45 -107 c5 -16 13 -38 17 -47 6 -16 1 -18 -35 -18 -32 0 -41 3 -37 14 3
8 11 33 18 55 13 44 20 44 37 -4z"/>
<path d="M7346 3441 c-8 -13 -9 -288 -1 -301 9 -14 42 -12 47 3 3 6 4 56 4
110 -1 53 2 97 6 97 4 0 13 -10 19 -22 11 -21 43 -73 103 -165 22 -34 55 -43
73 -20 8 9 11 264 4 300 0 4 -12 7 -26 7 -24 0 -24 0 -27 -115 l-3 -115 -70
113 c-58 92 -75 113 -97 115 -14 2 -29 -1 -32 -7z"/>
<path d="M7650 3430 c0 -12 22 -54 49 -94 45 -66 50 -80 53 -137 3 -57 5 -64
25 -67 18 -3 23 3 27 30 3 18 4 44 3 58 -4 30 3 45 61 133 45 68 49 97 13 97
-13 0 -31 -20 -57 -65 -21 -36 -41 -65 -45 -65 -4 0 -24 29 -45 65 -29 50 -43
65 -61 65 -17 0 -23 -6 -23 -20z"/>
<path d="M8069 3438 c-8 -71 -4 -290 5 -296 6 -4 52 -7 103 -8 71 0 93 3 98
14 10 26 -6 32 -80 32 l-74 0 -3 133 c-3 128 -4 132 -25 135 -14 2 -24 -2 -24
-10z"/>
<path d="M8318 3438 c-10 -29 -2 -288 9 -299 20 -20 43 -2 44 33 3 126 0 258
-6 267 -9 15 -42 14 -47 -1z"/>
<path d="M8451 3436 c-8 -9 -11 -60 -9 -157 3 -132 5 -144 22 -147 28 -6 34
13 34 97 0 115 2 121 18 76 59 -162 65 -175 89 -175 20 0 27 11 51 73 37 100
52 137 56 137 2 0 2 -42 2 -94 -2 -101 3 -120 32 -114 17 3 19 15 22 149 3
159 -3 177 -51 165 -20 -5 -31 -25 -67 -127 -44 -126 -49 -130 -70 -61 -20 63
-61 166 -71 178 -15 18 -43 18 -58 0z"/>
<path d="M8844 3438 c-10 -15 -9 -282 0 -297 10 -15 46 -14 47 2 4 42 5 275 1
290 -5 19 -37 23 -48 5z"/>
<path d="M8940 3435 c-18 -21 -1 -33 47 -33 19 0 36 -2 38 -4 3 -2 5 -59 6
-125 1 -67 5 -127 9 -133 4 -7 16 -10 26 -8 17 3 19 15 22 135 l3 132 47 3
c39 3 47 6 47 23 0 19 -8 20 -116 23 -97 2 -118 0 -129 -13z"/>
<path d="M9233 3438 c-10 -16 -12 -256 -2 -284 7 -20 14 -21 116 -20 101 1
108 2 108 21 0 18 -8 20 -86 23 l-86 3 -1 44 c-1 29 3 45 11 46 7 0 44 2 82 2
63 2 70 4 70 22 0 18 -8 21 -80 25 l-80 5 -3 38 -3 37 63 1 c110 2 113 2 113
24 0 19 -8 20 -107 23 -78 2 -109 -1 -115 -10z"/>
<path d="M9513 3438 c-11 -15 -11 -277 0 -295 5 -9 33 -11 93 -8 72 3 90 7
118 29 42 32 55 68 52 144 -3 70 -24 104 -79 127 -46 18 -170 20 -184 3z m182
-63 c14 -13 26 -33 26 -45 5 -72 0 -90 -30 -121 -25 -24 -37 -29 -80 -29 l-51
0 1 110 2 110 54 0 c44 0 58 -5 78 -25z"/>
</g>
</svg>
