<svg width="119" height="47" viewBox="0 0 119 47" fill="none" xmlns="http://www.w3.org/2000/svg">
<g clip-path="url(#clip0_1281_3298)">
<path d="M21.6335 12.5939C21.6335 12.5939 20.4209 11.0822 21.5323 9.81205C21.5323 9.81205 22.1972 7.96442 20.7661 6.81856L5.97346 6.80705C5.97346 6.80705 7.03649 8.4154 5.8216 9.58656C5.8216 9.58656 4.99097 11.3399 6.314 12.6054L21.6358 12.5939H21.6335ZM42.3096 12.5939C42.3096 12.5939 41.0993 11.0822 42.206 9.81205C42.206 9.81205 42.8733 7.96442 41.4421 6.81856L30.0434 6.80705C30.0434 6.80705 31.1087 8.4154 29.8938 9.58656C29.8938 9.58656 29.0609 11.3399 30.3839 12.6054L42.3096 12.5939ZM43.5291 6.04315C43.5291 6.04315 42.3188 4.53605 43.4278 3.26364C43.4278 3.26364 44.0951 1.4137 42.6639 0.267839L31.2606 0.260936C31.2606 0.260936 32.3305 1.86928 31.1087 3.03585C31.1087 3.03585 30.2804 4.78915 31.6011 6.06386L43.5291 6.04315ZM75.6407 19.0825C75.6407 19.0825 74.4327 17.5777 75.5372 16.2983C75.5372 16.2983 76.2021 14.453 74.7733 13.3072H44.2861C44.2861 13.3072 45.3399 14.9247 44.1066 16.0821C44.1066 16.0821 43.2576 17.8285 44.5691 19.1101L75.6407 19.0848V19.0825ZM40.554 19.0894C40.554 19.0894 39.3437 17.58 40.4551 16.3099C40.4551 16.3099 41.1223 14.4576 39.6934 13.3141L28.2901 13.3049C28.2901 13.3049 29.36 14.9109 28.1382 16.0798C28.1382 16.0798 27.3099 17.8354 28.6352 19.0986L40.5563 19.0894H40.554ZM19.4592 6.04315C19.4592 6.04315 18.2512 4.53605 19.3625 3.26364C19.3625 3.26364 20.0252 1.4137 18.5917 0.267839L7.19295 0.260936C7.19295 0.260936 8.25828 1.86928 7.03879 3.03585C7.03879 3.03585 6.21506 4.78915 7.53579 6.06386L19.4615 6.04315H19.4592ZM55.1855 26.312L41.4467 26.3027C41.4467 26.3027 42.5213 27.9134 41.2949 29.0823C41.2949 29.0823 40.4666 30.8356 41.7896 32.1034L56.0553 32.0896C56.0553 32.0896 54.8427 30.5848 55.9517 29.3101C55.9517 29.3101 56.6144 27.4601 55.1855 26.3143V26.312ZM60.5352 12.5962C60.5352 12.5962 59.3272 11.0845 60.4362 9.81436C60.4362 9.81436 61.0966 7.96672 59.6723 6.82086L45.9312 6.80935C45.9312 6.80935 47.0012 8.4177 45.784 9.58887C45.784 9.58887 44.9533 11.3422 46.2764 12.6077L60.5352 12.5962ZM89.0873 19.8142L77.6816 19.7773C77.6816 19.7773 78.7493 21.3811 77.5321 22.5522C77.5321 22.5522 76.7037 24.3102 78.0222 25.5757L89.9478 25.5573C89.9478 25.5573 88.7399 24.0525 89.8512 22.7754C89.8512 22.7754 90.5116 20.9577 89.085 19.8142H89.0873ZM93.1438 12.5962C93.1438 12.5962 91.9427 11.0845 93.0426 9.81436C93.0426 9.81436 93.7121 7.99433 92.2856 6.84847L80.8822 6.80935C80.8822 6.80935 81.9475 8.4177 80.7257 9.58887C80.7257 9.58887 79.902 11.3422 81.2251 12.6077L93.1415 12.5962H93.1438ZM79.4671 19.1009L91.3928 19.0917C91.3928 19.0917 90.1848 17.5823 91.2939 16.3122C91.2939 16.3122 91.9611 14.4875 90.5323 13.344L79.1289 13.3072C79.1289 13.3072 80.1942 14.9132 78.977 16.0821C78.977 16.0821 78.151 17.8377 79.4694 19.1009H79.4671ZM88.0128 26.3027L76.6071 26.259C76.6071 26.259 77.6747 27.872 76.4575 29.0408C76.4575 29.0408 75.6292 30.7964 76.9545 32.062L88.8756 32.0412C88.8756 32.0412 87.6699 30.541 88.7813 29.2594C88.7813 29.2594 89.4416 27.4417 88.0151 26.3004L88.0128 26.3027ZM48.009 6.12138L78.4916 6.06386C78.4916 6.06386 77.4423 4.44861 78.6687 3.28895C78.6687 3.28895 79.5155 1.51724 78.2039 0.237927L47.1323 0.249431C47.1323 0.249431 48.338 1.87848 47.2313 3.15779C47.2313 3.15779 46.5778 4.98472 48.009 6.12138ZM35.8854 32.7982L24.4775 32.789C24.4775 32.789 25.552 34.402 24.3279 35.5663C24.3279 35.5663 23.5042 37.3196 24.8249 38.592L36.746 38.615C36.746 38.615 35.5426 37.0642 36.6539 35.794C36.6539 35.794 37.3166 33.9418 35.8877 32.8005L35.8854 32.7982ZM113.364 19.7842L101.968 19.775C101.968 19.775 103.033 21.3788 101.816 22.5499C101.816 22.5499 100.988 24.3078 102.308 25.5734L114.229 25.5549C114.229 25.5549 113.019 24.0501 114.133 22.7731C114.133 22.7731 114.795 20.9278 113.364 19.7842ZM114.809 13.3141L103.408 13.3049C103.408 13.3049 104.474 14.9109 103.259 16.0798C103.259 16.0798 102.428 17.8354 103.753 19.0986L115.674 19.0894C115.674 19.0894 114.464 17.58 115.573 16.3099C115.573 16.3099 116.24 14.4576 114.807 13.3141H114.809ZM112.287 26.2728L100.893 26.2567C100.893 26.2567 101.956 27.8697 100.744 29.0385C100.744 29.0385 99.9154 30.7941 101.236 32.0597L113.162 32.0389C113.162 32.0389 111.952 30.5387 113.063 29.2571C113.063 29.2571 113.728 27.4118 112.29 26.2705L112.287 26.2728ZM110.794 32.789L100.781 32.8167C100.781 32.8167 101.121 34.0568 99.8763 35.2257H88.4729C88.4729 35.2257 87.8471 32.9892 87.1959 32.8005L75.7097 32.8167C75.7097 32.8167 73.7356 35.1383 78.0751 38.6081H109.851C115.016 34.1328 110.794 32.789 110.794 32.789ZM115.44 0.224121L83.6686 0.251732C78.4916 4.71322 82.7068 6.08226 82.7068 6.08226L92.725 6.09607C92.725 6.09607 92.3845 4.84897 93.627 3.6847L105.035 3.70311C105.035 3.70311 105.656 5.94421 106.314 6.13518H117.8C117.8 6.13518 119.779 3.71232 115.442 0.224121L115.44 0.224121ZM116.567 6.82086L105.171 6.80935C105.171 6.80935 106.234 8.4177 105.019 9.58887C105.019 9.58887 104.188 11.3422 105.509 12.6077L117.435 12.5962C117.435 12.5962 116.227 11.0845 117.336 9.81436C117.336 9.81436 118.001 7.96672 116.569 6.82086H116.567ZM70.2428 32.8512L39.7533 32.8443C39.7533 32.8443 40.8094 34.4687 39.5761 35.6238C39.5761 35.6238 38.7294 37.3679 40.0363 38.6495L71.1033 38.6242C71.1033 38.6242 69.8976 37.1194 71.0067 35.8424C71.0067 35.8424 71.6693 33.9855 70.2405 32.8535L70.2428 32.8512ZM14.1785 19.7842L2.77288 19.775C2.77288 19.775 3.84051 21.3788 2.62332 22.5499C2.62332 22.5499 1.79729 24.3078 3.11802 25.5734L15.0414 25.5549C15.0414 25.5549 13.8357 24.0501 14.9424 22.7731C14.9424 22.7731 15.6097 20.9278 14.1808 19.7842H14.1785ZM37.1716 26.2728L21.3413 26.2567C21.3413 26.2567 22.4112 27.8697 21.194 29.0385C21.194 29.0385 20.3611 30.7941 21.6864 32.0597L38.0414 32.0389C38.0414 32.0389 36.8334 30.5387 37.9424 29.2571C37.9424 29.2571 38.6028 27.4118 37.1739 26.2705L37.1716 26.2728ZM13.0994 26.2728L1.70065 26.2567C1.70065 26.2567 2.77518 27.8697 1.5557 29.0385C1.5557 29.0385 0.722763 30.7941 2.04809 32.0597L13.9669 32.0389C13.9669 32.0389 12.7612 30.5387 13.8702 29.2571C13.8702 29.2571 14.5329 27.4118 13.1017 26.2705L13.0994 26.2728ZM38.2508 19.7842H25.0964C24.5143 19.4092 24.229 19.0894 24.229 19.0894C24.229 19.0894 23.021 17.58 24.1323 16.3099C24.1323 16.3099 24.7973 14.4576 23.3707 13.3141L4.21786 13.3049C4.21786 13.3049 5.28779 14.9109 4.066 16.0798C4.066 16.0798 3.23997 17.8354 4.5653 19.0986L17.9981 19.0917C18.4652 19.4966 18.594 19.775 18.594 19.775C18.594 19.775 19.6639 21.3788 18.4467 22.5499C18.4467 22.5499 17.6161 24.3078 18.9368 25.5734L39.1136 25.5549C39.1136 25.5549 37.9102 24.0501 39.0193 22.7731C39.0193 22.7731 39.6842 20.9278 38.2531 19.7842H38.2508ZM11.8132 32.7982L0.409838 32.789C0.409838 32.789 1.47977 34.402 0.257977 35.5663C0.257977 35.5663 -0.572655 37.3196 0.752675 38.592L12.676 38.615C12.676 38.615 11.4704 37.0642 12.5817 35.794C12.5817 35.794 13.2444 33.9418 11.8132 32.8005V32.7982ZM42.7445 19.8993C42.7445 19.8993 43.9594 21.3995 42.8526 22.6742C42.8526 22.6742 42.1922 24.5034 43.6257 25.6332L74.1083 25.6171C74.1083 25.6171 73.0568 23.9673 74.2809 22.81C74.2809 22.81 75.1253 21.151 73.8138 19.8717L42.7445 19.8993Z" fill="url(#paint0_linear_1281_3298)"/>
<path d="M0.172852 42.8969C0.172852 42.8347 0.182055 42.7795 0.200463 42.7243C0.21887 42.6714 0.246481 42.623 0.283296 42.5839C0.32011 42.5448 0.366129 42.5126 0.423652 42.4896C0.478874 42.4666 0.545601 42.4551 0.621531 42.4551C0.697461 42.4551 0.766489 42.4712 0.837817 42.5057C0.909146 42.5379 0.966669 42.5885 1.01039 42.6553L2.60492 45.2254V42.8071C2.60492 42.6898 2.63253 42.6023 2.69006 42.5425C2.74758 42.4827 2.82811 42.4551 2.93165 42.4551C3.0352 42.4551 3.11573 42.485 3.17555 42.5425C3.23538 42.6 3.26299 42.6875 3.26299 42.8071V45.7339C3.26299 45.8834 3.22617 45.9985 3.15254 46.079C3.07891 46.1596 2.97537 46.1987 2.84422 46.1987C2.7867 46.1987 2.73378 46.1918 2.68546 46.178C2.63714 46.1642 2.59572 46.1458 2.5566 46.1204C2.51749 46.0951 2.48298 46.0675 2.45536 46.0353C2.42545 46.0031 2.40014 45.9686 2.37713 45.9341L0.833216 43.4514V45.8535C0.833216 45.9709 0.805605 46.0583 0.748082 46.1135C0.690559 46.1688 0.610026 46.1964 0.506485 46.1964C0.402944 46.1964 0.322411 46.1688 0.262587 46.1135C0.202764 46.0583 0.175152 45.9709 0.175152 45.8535V42.8969H0.172852Z" fill="#004F9F"/>
<path d="M4.63916 44.5375V45.6028H6.44538C6.4845 45.6028 6.52131 45.6097 6.55583 45.6235C6.59034 45.6373 6.62025 45.658 6.64556 45.6811C6.67087 45.7041 6.68928 45.734 6.70539 45.7685C6.72149 45.803 6.7284 45.8375 6.7284 45.8743C6.7284 45.9111 6.72149 45.948 6.70539 45.9802C6.68928 46.0124 6.67087 46.0423 6.64556 46.0676C6.62025 46.0906 6.59034 46.1113 6.55583 46.1251C6.52131 46.1389 6.4845 46.1458 6.44538 46.1458H4.31013C4.26641 46.1458 4.22269 46.1366 4.18358 46.1205C4.14446 46.1044 4.10995 46.0814 4.08004 46.0515C4.05013 46.0216 4.02712 45.9894 4.00871 45.9503C3.9903 45.9111 3.9834 45.8697 3.9834 45.826V42.8164C3.9834 42.7727 3.9926 42.729 4.00871 42.6922C4.02482 42.6553 4.05013 42.6208 4.08004 42.5909C4.10995 42.561 4.14446 42.538 4.18358 42.5219C4.22269 42.5058 4.26641 42.4966 4.31013 42.4966H6.44538C6.4845 42.4966 6.52131 42.5035 6.55583 42.5196C6.59034 42.5357 6.62025 42.5541 6.64556 42.5794C6.67087 42.6047 6.68928 42.6346 6.70539 42.6669C6.72149 42.6991 6.7284 42.7359 6.7284 42.775C6.7284 42.8141 6.72149 42.8486 6.70539 42.8808C6.68928 42.913 6.67087 42.943 6.64556 42.9683C6.62025 42.9936 6.59034 43.012 6.55583 43.0281C6.52131 43.0419 6.4845 43.0488 6.44538 43.0488H4.63916V43.9807H6.29352C6.33264 43.9807 6.36715 43.9876 6.40397 44.0037C6.43848 44.0198 6.46839 44.0382 6.4914 44.0635C6.51441 44.0888 6.53742 44.1187 6.55123 44.1509C6.56733 44.1855 6.57423 44.22 6.57423 44.2591C6.57423 44.2982 6.56733 44.3327 6.55123 44.3649C6.53742 44.3994 6.51671 44.4271 6.4914 44.4547C6.46609 44.48 6.43618 44.5007 6.40397 44.5145C6.36945 44.5283 6.33264 44.5352 6.29352 44.5352H4.63916V44.5375Z" fill="#004F9F"/>
<path d="M7.00879 44.3235C7.00879 44.1578 7.0249 43.9944 7.05941 43.8357C7.09392 43.6769 7.14454 43.5251 7.21127 43.3847C7.278 43.2443 7.36313 43.1132 7.46437 42.9935C7.56561 42.8739 7.68526 42.7727 7.82101 42.6875C7.95677 42.6024 8.10863 42.5357 8.2812 42.4873C8.45147 42.439 8.64014 42.416 8.84492 42.416C9.04971 42.416 9.24068 42.439 9.41325 42.4873C9.58582 42.5357 9.73998 42.6024 9.87574 42.6875C10.0115 42.7727 10.1334 42.8739 10.2347 42.9935C10.3382 43.1132 10.4234 43.242 10.4901 43.3847C10.5568 43.5274 10.6097 43.6769 10.6442 43.8357C10.6788 43.9944 10.6949 44.1578 10.6949 44.3235C10.6949 44.4891 10.6765 44.6525 10.6442 44.8113C10.612 44.97 10.5591 45.1173 10.4901 45.2577C10.4211 45.398 10.3359 45.5269 10.2347 45.6442C10.1334 45.7616 10.0115 45.8628 9.87574 45.9479C9.73998 46.0331 9.58352 46.0975 9.41325 46.1458C9.24068 46.1941 9.05201 46.2171 8.84492 46.2171C8.63784 46.2171 8.45147 46.1941 8.2812 46.1458C8.11093 46.0975 7.95677 46.0331 7.82101 45.9479C7.68526 45.8651 7.56561 45.7639 7.46437 45.6442C7.36313 45.5269 7.278 45.398 7.21127 45.2577C7.14454 45.1173 7.09392 44.9677 7.05941 44.8113C7.0249 44.6548 7.00879 44.4914 7.00879 44.3235ZM7.66685 44.3235C7.66685 44.4362 7.67606 44.5467 7.69676 44.6571C7.71517 44.7676 7.74508 44.8734 7.7865 44.9723C7.82792 45.0736 7.87854 45.1656 7.94066 45.2508C8.00279 45.3359 8.07872 45.4095 8.16615 45.4739C8.25359 45.5384 8.35253 45.5867 8.46527 45.6235C8.57802 45.658 8.70457 45.6764 8.84492 45.6764C8.98528 45.6764 9.11643 45.658 9.23148 45.6235C9.34652 45.589 9.44776 45.5384 9.5352 45.4739C9.62263 45.4118 9.69856 45.3359 9.76299 45.2508C9.82512 45.1656 9.87804 45.0713 9.91945 44.9723C9.96087 44.8711 9.99078 44.7653 10.0092 44.6571C10.0276 44.5467 10.0391 44.4362 10.0391 44.3235C10.0391 44.2107 10.0299 44.1003 10.0092 43.9898C9.98848 43.8794 9.96087 43.7713 9.91945 43.6723C9.88034 43.5711 9.82742 43.479 9.76299 43.3916C9.69856 43.3042 9.62263 43.2305 9.5352 43.1661C9.44776 43.1017 9.34422 43.0534 9.23148 43.0166C9.11873 42.9797 8.98758 42.9613 8.84492 42.9613C8.70227 42.9613 8.57802 42.9797 8.46527 43.0166C8.35253 43.0534 8.25359 43.1017 8.16615 43.1661C8.07872 43.2282 8.00509 43.3042 7.94066 43.3916C7.87854 43.479 7.82562 43.5711 7.7865 43.6723C7.74738 43.7736 7.71517 43.8794 7.69676 43.9898C7.67606 44.1003 7.66685 44.213 7.66685 44.3235Z" fill="#004F9F"/>
<path d="M15.0437 44.986C15.0552 44.9423 15.0759 44.9055 15.1035 44.871C15.1311 44.8387 15.1611 44.8134 15.1979 44.7927C15.2324 44.772 15.2715 44.7605 15.3152 44.7559C15.3566 44.7513 15.4003 44.7559 15.4418 44.7674C15.4855 44.7789 15.5246 44.7996 15.5568 44.8272C15.589 44.8549 15.6166 44.8871 15.635 44.9216C15.6534 44.9584 15.6673 44.9975 15.6719 45.0389C15.6765 45.0803 15.6719 45.1241 15.6604 45.1678C15.6097 45.3334 15.5407 45.483 15.4533 45.6119C15.3658 45.7407 15.26 45.8511 15.1357 45.9386C15.0115 46.026 14.8688 46.095 14.7055 46.1411C14.5421 46.1871 14.3603 46.2124 14.1579 46.2124C13.8518 46.2124 13.5849 46.1641 13.3594 46.0674C13.1316 45.9708 12.943 45.8396 12.7934 45.6717C12.6438 45.5037 12.5311 45.3035 12.4552 45.0757C12.3815 44.8479 12.3447 44.5994 12.3447 44.3348C12.3447 44.1554 12.3631 43.9828 12.3976 43.8194C12.4322 43.6538 12.4851 43.5019 12.5541 43.3593C12.6231 43.2166 12.7083 43.0877 12.8118 42.9704C12.9154 42.853 13.0327 42.7541 13.1685 42.6713C13.3042 42.5884 13.4538 42.524 13.6194 42.4803C13.7874 42.4343 13.9692 42.4136 14.1671 42.4136C14.3327 42.4136 14.4915 42.432 14.641 42.4665C14.7906 42.501 14.9264 42.5562 15.0506 42.6276C15.1749 42.6989 15.2853 42.7886 15.3796 42.8945C15.4763 43.0003 15.5545 43.1269 15.6189 43.2672C15.6373 43.3086 15.6442 43.3524 15.6442 43.3961C15.6442 43.4398 15.635 43.4789 15.6189 43.518C15.6028 43.5571 15.5798 43.5916 15.5499 43.6216C15.52 43.6515 15.4832 43.6768 15.4395 43.6929C15.3957 43.7113 15.3543 43.7182 15.3106 43.7182C15.2669 43.7182 15.2278 43.7113 15.1887 43.6952C15.1495 43.6791 15.115 43.6561 15.0851 43.6262C15.0552 43.5962 15.0299 43.5594 15.0138 43.518C14.9379 43.327 14.8251 43.1844 14.6779 43.0946C14.5306 43.0049 14.358 42.9589 14.1579 42.9589C14.0244 42.9589 13.9024 42.975 13.7943 43.0095C13.6839 43.044 13.5872 43.0923 13.5021 43.1522C13.417 43.2143 13.3433 43.2856 13.2789 43.3708C13.2168 43.4536 13.1639 43.5456 13.1224 43.6446C13.081 43.7435 13.0511 43.8493 13.0304 43.9598C13.0097 44.0702 13.0005 44.183 13.0005 44.298C13.0005 44.4844 13.0258 44.6616 13.0718 44.8295C13.1178 44.9975 13.1869 45.1425 13.2812 45.269C13.3755 45.3956 13.4975 45.4922 13.6424 45.5681C13.7897 45.6418 13.9646 45.6786 14.1671 45.6786C14.2936 45.6786 14.404 45.6602 14.503 45.6234C14.6019 45.5865 14.6848 45.5359 14.7561 45.4738C14.8274 45.4117 14.8872 45.338 14.9356 45.2552C14.9839 45.1724 15.0207 45.0826 15.046 44.9906L15.0437 44.986Z" fill="#004F9F"/>
<path d="M15.9893 44.3235C15.9893 44.1578 16.0054 43.9944 16.0399 43.8357C16.0744 43.6769 16.125 43.5251 16.1917 43.3847C16.2585 43.2443 16.3436 43.1132 16.4448 42.9935C16.5461 42.8739 16.6657 42.7727 16.8015 42.6875C16.9372 42.6024 17.0891 42.5357 17.2617 42.4873C17.4319 42.439 17.6206 42.416 17.8254 42.416C18.0302 42.416 18.2212 42.439 18.3937 42.4873C18.5663 42.5357 18.7204 42.6024 18.8562 42.6875C18.992 42.7727 19.1139 42.8739 19.2151 42.9935C19.3187 43.1132 19.4038 43.242 19.4706 43.3847C19.5373 43.5274 19.5902 43.6769 19.6247 43.8357C19.6592 43.9944 19.6753 44.1578 19.6753 44.3235C19.6753 44.4891 19.6569 44.6525 19.6247 44.8113C19.5925 44.97 19.5396 45.1173 19.4706 45.2577C19.4015 45.398 19.3164 45.5269 19.2151 45.6442C19.1139 45.7616 18.992 45.8628 18.8562 45.9479C18.7204 46.0331 18.564 46.0975 18.3937 46.1458C18.2212 46.1941 18.0325 46.2171 17.8254 46.2171C17.6183 46.2171 17.4319 46.1941 17.2617 46.1458C17.0914 46.0975 16.9372 46.0331 16.8015 45.9479C16.6657 45.8651 16.5461 45.7639 16.4448 45.6442C16.3436 45.5269 16.2585 45.398 16.1917 45.2577C16.125 45.1173 16.0744 44.9677 16.0399 44.8113C16.0054 44.6548 15.9893 44.4914 15.9893 44.3235ZM16.6473 44.3235C16.6473 44.4362 16.6565 44.5467 16.6772 44.6571C16.6956 44.7676 16.7256 44.8734 16.767 44.9723C16.8084 45.0736 16.859 45.1656 16.9211 45.2508C16.9833 45.3359 17.0592 45.4095 17.1466 45.4739C17.2341 45.5384 17.333 45.5867 17.4457 45.6235C17.5585 45.658 17.685 45.6764 17.8254 45.6764C17.9657 45.6764 18.0969 45.658 18.2119 45.6235C18.327 45.589 18.4282 45.5384 18.5157 45.4739C18.6031 45.4118 18.679 45.3359 18.7435 45.2508C18.8056 45.1656 18.8585 45.0713 18.8999 44.9723C18.9413 44.8711 18.9713 44.7653 18.9897 44.6571C19.0081 44.5467 19.0196 44.4362 19.0196 44.3235C19.0196 44.2107 19.0104 44.1003 18.9897 43.9898C18.9689 43.8794 18.9413 43.7713 18.8999 43.6723C18.8608 43.5711 18.8079 43.479 18.7435 43.3916C18.679 43.3042 18.6031 43.2305 18.5157 43.1661C18.4282 43.1017 18.3247 43.0534 18.2119 43.0166C18.0992 42.9797 17.9681 42.9613 17.8254 42.9613C17.6827 42.9613 17.5585 42.9797 17.4457 43.0166C17.333 43.0534 17.2341 43.1017 17.1466 43.1661C17.0592 43.2282 16.9856 43.3042 16.9211 43.3916C16.859 43.479 16.8061 43.5711 16.767 43.6723C16.7279 43.7736 16.6956 43.8794 16.6772 43.9898C16.6565 44.1003 16.6473 44.213 16.6473 44.3235Z" fill="#004F9F"/>
<path d="M22.5696 45.9894C22.5512 45.9457 22.5328 45.8996 22.5121 45.8467C22.4914 45.7938 22.473 45.7363 22.4523 45.6719L22.2912 45.0943C22.2728 45.0368 22.2498 44.9816 22.2199 44.9287C22.19 44.8757 22.1509 44.8274 22.1026 44.786C22.0542 44.7446 21.9921 44.7124 21.9162 44.6871C21.8426 44.664 21.7505 44.6502 21.6447 44.6502H20.8417V45.8444C20.8417 45.8881 20.8348 45.9319 20.8186 45.9733C20.8048 46.0147 20.7818 46.0492 20.7542 46.0814C20.7266 46.1136 20.6921 46.1389 20.6507 46.1573C20.6093 46.1758 20.5632 46.185 20.5126 46.185C20.462 46.185 20.416 46.1758 20.3746 46.1573C20.3332 46.1389 20.2986 46.1136 20.271 46.0814C20.2434 46.0492 20.2227 46.0147 20.2066 45.9733C20.1905 45.9319 20.1836 45.8904 20.1836 45.8444V42.8164C20.1836 42.7727 20.1928 42.729 20.2089 42.6922C20.225 42.6553 20.2503 42.6208 20.2802 42.5909C20.3101 42.561 20.3447 42.538 20.3838 42.5219C20.4229 42.5058 20.4666 42.4966 20.5103 42.4966H21.953C22.144 42.4966 22.3142 42.5196 22.4638 42.5633C22.6134 42.6093 22.7399 42.6738 22.8435 42.7589C22.947 42.844 23.0252 42.9476 23.0805 43.0718C23.1357 43.1961 23.161 43.3364 23.161 43.4929C23.161 43.6309 23.1403 43.7529 23.1012 43.8587C23.062 43.9646 23.0091 44.0589 22.9424 44.1371C22.8757 44.2154 22.7974 44.2798 22.7077 44.3281C22.618 44.3764 22.5236 44.4132 22.4247 44.4363C22.496 44.4731 22.5581 44.5099 22.6111 44.549C22.664 44.5881 22.71 44.6318 22.7491 44.6802C22.7882 44.7285 22.8227 44.7814 22.8504 44.8412C22.878 44.901 22.9033 44.9678 22.924 45.0437C22.9516 45.1426 22.9746 45.2255 22.993 45.2922C23.0114 45.3589 23.0275 45.4164 23.039 45.4625C23.0505 45.5085 23.062 45.5453 23.0689 45.5752C23.0759 45.6051 23.0851 45.6281 23.092 45.6488C23.0989 45.6695 23.1058 45.6903 23.1104 45.7087C23.115 45.7271 23.1242 45.7478 23.1311 45.7731C23.1449 45.8122 23.1495 45.8536 23.1472 45.8927C23.1449 45.9319 23.1357 45.971 23.1196 46.0078C23.1035 46.0423 23.0828 46.0745 23.0528 46.1021C23.0229 46.1297 22.9884 46.1504 22.947 46.1642C22.9079 46.1804 22.8665 46.185 22.8274 46.185C22.7882 46.185 22.7491 46.1735 22.7146 46.1596C22.6801 46.1435 22.6479 46.1228 22.6203 46.0929C22.5927 46.063 22.5719 46.0285 22.5558 45.9894H22.5696ZM21.7574 44.1141C21.8564 44.1141 21.953 44.1072 22.045 44.0888C22.1371 44.0727 22.2176 44.0428 22.2866 44.0014C22.3557 43.96 22.4109 43.9024 22.4523 43.8311C22.4937 43.7598 22.5144 43.6701 22.5121 43.5596C22.5121 43.4837 22.5029 43.4146 22.4799 43.3502C22.4569 43.2881 22.4201 43.2329 22.3741 43.1892C22.3257 43.1431 22.2659 43.1109 22.19 43.0856C22.1164 43.0626 22.0289 43.0488 21.9277 43.0488H20.8463V44.1141H21.7574Z" fill="#004F9F"/>
<path d="M23.7914 42.8184C23.7914 42.7746 23.8006 42.7309 23.8167 42.6941C23.8328 42.6573 23.8581 42.6228 23.888 42.5929C23.9179 42.563 23.9524 42.54 23.9915 42.5238C24.0307 42.5077 24.0744 42.4985 24.1181 42.4985H25.4641C25.6666 42.4985 25.8461 42.5238 26.0002 42.5722C26.1544 42.6205 26.2833 42.6941 26.3891 42.7885C26.4949 42.8828 26.5732 43.0001 26.6261 43.1382C26.679 43.2762 26.7043 43.435 26.7043 43.6122C26.7043 43.7894 26.6767 43.9412 26.6261 44.0793C26.5732 44.2173 26.4949 44.3324 26.3891 44.4244C26.2856 44.5187 26.1544 44.5901 26.0002 44.6407C25.8461 44.6913 25.6666 44.7143 25.4641 44.712H24.4471V45.8464C24.4471 45.8901 24.4402 45.9338 24.4241 45.9752C24.408 46.0166 24.3873 46.0512 24.3574 46.0834C24.3275 46.1156 24.2953 46.1409 24.2538 46.1593C24.2124 46.1777 24.1687 46.1869 24.1181 46.1869C24.0675 46.1869 24.0215 46.1777 23.98 46.1593C23.9386 46.1409 23.9064 46.1156 23.8765 46.0834C23.8466 46.0512 23.8259 46.0166 23.8121 45.9752C23.7983 45.9338 23.7891 45.8924 23.7891 45.8464V42.8184H23.7914ZM25.2962 44.1667C25.5493 44.1713 25.7402 44.123 25.8668 44.0286C25.9933 43.932 26.0555 43.794 26.0555 43.6122C26.0555 43.4304 25.9933 43.2878 25.8668 43.1934C25.7402 43.0991 25.5493 43.0508 25.2962 43.0508H24.4494V44.1667H25.2962Z" fill="#004F9F"/>
<path d="M26.9971 44.3235C26.9971 44.1578 27.0132 43.9944 27.0477 43.8357C27.0822 43.6769 27.1328 43.5251 27.1996 43.3847C27.2663 43.2443 27.3514 43.1132 27.4527 42.9935C27.5539 42.8739 27.6735 42.7727 27.8093 42.6875C27.945 42.6024 28.0969 42.5357 28.2695 42.4873C28.4397 42.439 28.6284 42.416 28.8332 42.416C29.038 42.416 29.229 42.439 29.4015 42.4873C29.5741 42.5357 29.7283 42.6024 29.864 42.6875C29.9998 42.7727 30.1217 42.8739 30.223 42.9935C30.3265 43.1132 30.4116 43.242 30.4784 43.3847C30.5451 43.5274 30.598 43.6769 30.6325 43.8357C30.667 43.9944 30.6831 44.1578 30.6831 44.3235C30.6831 44.4891 30.6647 44.6525 30.6325 44.8113C30.6003 44.97 30.5474 45.1173 30.4784 45.2577C30.4093 45.398 30.3242 45.5269 30.223 45.6442C30.1217 45.7616 29.9998 45.8628 29.864 45.9479C29.7283 46.0331 29.5718 46.0975 29.4015 46.1458C29.229 46.1941 29.0403 46.2171 28.8332 46.2171C28.6261 46.2171 28.4397 46.1941 28.2695 46.1458C28.0992 46.0975 27.945 46.0331 27.8093 45.9479C27.6735 45.8651 27.5539 45.7639 27.4527 45.6442C27.3514 45.5269 27.2663 45.398 27.1996 45.2577C27.1328 45.1173 27.0822 44.9677 27.0477 44.8113C27.0132 44.6548 26.9971 44.4914 26.9971 44.3235ZM27.6551 44.3235C27.6551 44.4362 27.6643 44.5467 27.685 44.6571C27.7035 44.7676 27.7334 44.8734 27.7748 44.9723C27.8162 45.0736 27.8668 45.1656 27.9289 45.2508C27.9911 45.3359 28.067 45.4095 28.1544 45.4739C28.2419 45.5384 28.3408 45.5867 28.4536 45.6235C28.5663 45.658 28.6928 45.6764 28.8332 45.6764C28.9736 45.6764 29.1047 45.658 29.2198 45.6235C29.3348 45.589 29.436 45.5384 29.5235 45.4739C29.6109 45.4118 29.6868 45.3359 29.7513 45.2508C29.8134 45.1656 29.8663 45.0713 29.9077 44.9723C29.9491 44.8711 29.9791 44.7653 29.9975 44.6571C30.0159 44.5467 30.0274 44.4362 30.0274 44.3235C30.0274 44.2107 30.0182 44.1003 29.9975 43.9898C29.9768 43.8794 29.9491 43.7713 29.9077 43.6723C29.8686 43.5711 29.8157 43.479 29.7513 43.3916C29.6868 43.3042 29.6109 43.2305 29.5235 43.1661C29.436 43.1017 29.3325 43.0534 29.2198 43.0166C29.107 42.9797 28.9759 42.9613 28.8332 42.9613C28.6905 42.9613 28.5663 42.9797 28.4536 43.0166C28.3408 43.0534 28.2419 43.1017 28.1544 43.1661C28.067 43.2282 27.9934 43.3042 27.9289 43.3916C27.8668 43.479 27.8139 43.5711 27.7748 43.6723C27.7357 43.7736 27.7035 43.8794 27.685 43.9898C27.6643 44.1003 27.6551 44.213 27.6551 44.3235Z" fill="#004F9F"/>
<path d="M33.5775 45.9894C33.5591 45.9457 33.5406 45.8996 33.5199 45.8467C33.4992 45.7938 33.4808 45.7363 33.4601 45.6719L33.299 45.0943C33.2806 45.0368 33.2576 44.9816 33.2277 44.9287C33.1978 44.8757 33.1587 44.8274 33.1104 44.786C33.0621 44.7446 32.9999 44.7124 32.924 44.6871C32.8504 44.664 32.7583 44.6502 32.6525 44.6502H31.8495V45.8444C31.8495 45.8881 31.8426 45.9319 31.8265 45.9733C31.8127 46.0147 31.7896 46.0492 31.762 46.0814C31.7344 46.1136 31.6999 46.1389 31.6585 46.1573C31.6171 46.1758 31.5711 46.185 31.5204 46.185C31.4698 46.185 31.4238 46.1758 31.3824 46.1573C31.341 46.1389 31.3065 46.1136 31.2788 46.0814C31.2512 46.0492 31.2305 46.0147 31.2144 45.9733C31.1983 45.9319 31.1914 45.8904 31.1914 45.8444V42.8164C31.1914 42.7727 31.2006 42.729 31.2167 42.6922C31.2328 42.6553 31.2581 42.6208 31.288 42.5909C31.318 42.561 31.3525 42.538 31.3916 42.5219C31.4307 42.5058 31.4744 42.4966 31.5181 42.4966H32.9608C33.1518 42.4966 33.3221 42.5196 33.4716 42.5633C33.6212 42.6093 33.7477 42.6738 33.8513 42.7589C33.9548 42.844 34.033 42.9476 34.0883 43.0718C34.1435 43.1961 34.1688 43.3364 34.1688 43.4929C34.1688 43.6309 34.1481 43.7529 34.109 43.8587C34.0699 43.9646 34.0169 44.0589 33.9502 44.1371C33.8835 44.2154 33.8053 44.2798 33.7155 44.3281C33.6258 44.3764 33.5314 44.4132 33.4325 44.4363C33.5038 44.4731 33.566 44.5099 33.6189 44.549C33.6718 44.5881 33.7178 44.6318 33.7569 44.6802C33.796 44.7285 33.8306 44.7814 33.8582 44.8412C33.8858 44.901 33.9111 44.9678 33.9318 45.0437C33.9594 45.1426 33.9824 45.2255 34.0008 45.2922C34.0192 45.3589 34.0353 45.4164 34.0468 45.4625C34.0584 45.5085 34.0699 45.5453 34.0768 45.5752C34.0837 45.6051 34.0929 45.6281 34.0998 45.6488C34.1067 45.6695 34.1136 45.6903 34.1182 45.7087C34.1228 45.7271 34.132 45.7478 34.1389 45.7731C34.1527 45.8122 34.1573 45.8536 34.155 45.8927C34.1527 45.9319 34.1435 45.971 34.1274 46.0078C34.1113 46.0423 34.0906 46.0745 34.0607 46.1021C34.0307 46.1297 33.9962 46.1504 33.9548 46.1642C33.9157 46.1804 33.8743 46.185 33.8352 46.185C33.796 46.185 33.7569 46.1735 33.7224 46.1596C33.6879 46.1435 33.6557 46.1228 33.6281 46.0929C33.6005 46.063 33.5798 46.0285 33.5637 45.9894H33.5775ZM32.7652 44.1141C32.8642 44.1141 32.9608 44.1072 33.0528 44.0888C33.1449 44.0727 33.2254 44.0428 33.2944 44.0014C33.3635 43.96 33.4187 43.9024 33.4601 43.8311C33.5015 43.7598 33.5222 43.6701 33.5199 43.5596C33.5199 43.4837 33.5107 43.4146 33.4877 43.3502C33.4647 43.2881 33.4279 43.2329 33.3819 43.1892C33.3336 43.1431 33.2737 43.1109 33.1978 43.0856C33.1242 43.0626 33.0367 43.0488 32.9355 43.0488H31.8541V44.1141H32.7652Z" fill="#004F9F"/>
<path d="M36.9274 45.1243H35.5054L35.1856 46.0056C35.1649 46.0654 35.1303 46.1091 35.0797 46.1344C35.0291 46.1597 34.967 46.1735 34.8864 46.1735C34.8427 46.1735 34.799 46.1666 34.7622 46.1528C34.7231 46.139 34.6909 46.1206 34.6633 46.0976C34.6356 46.0746 34.6149 46.0447 34.6011 46.0102C34.585 45.9756 34.5781 45.9365 34.5781 45.8951C34.5781 45.8767 34.5804 45.8537 34.585 45.8284C34.5896 45.8031 34.5965 45.7778 34.6034 45.7524C34.6103 45.7271 34.6195 45.7018 34.6287 45.6788C34.6379 45.6558 34.6449 45.6328 34.6518 45.6144L35.7769 42.7313C35.8114 42.6439 35.8574 42.5818 35.915 42.545C35.9725 42.5082 36.0438 42.4897 36.1312 42.4897H36.3038C36.3429 42.4897 36.382 42.492 36.4189 42.4989C36.4557 42.5059 36.4902 42.5174 36.5224 42.5358C36.5546 42.5542 36.5845 42.5795 36.6121 42.6117C36.6397 42.6439 36.6628 42.6853 36.6858 42.7382L37.8201 45.5776C37.827 45.5983 37.8362 45.6213 37.8454 45.6466C37.8546 45.6719 37.8638 45.6972 37.8707 45.7248C37.8776 45.7524 37.8868 45.7801 37.8914 45.8054C37.8961 45.8307 37.9007 45.8537 37.9007 45.8744C37.9007 45.9204 37.8938 45.9595 37.8776 45.9963C37.8615 46.0332 37.8385 46.0654 37.8086 46.0907C37.7787 46.116 37.7442 46.1367 37.7028 46.1505C37.6637 46.1643 37.6176 46.1712 37.5693 46.1712C37.4842 46.1712 37.4152 46.1574 37.3599 46.1275C37.307 46.0976 37.2702 46.0539 37.2449 45.9894L36.9251 45.1197L36.9274 45.1243ZM36.7065 44.5652L36.2141 43.2237L35.7332 44.5652H36.7042H36.7065Z" fill="#004F9F"/>
<path d="M39.567 43.0511V45.8375C39.567 45.8812 39.5601 45.925 39.5486 45.9687C39.5371 46.0101 39.5186 46.0492 39.491 46.0814C39.4634 46.1136 39.4312 46.1412 39.3898 46.1596C39.3484 46.1804 39.2978 46.1896 39.2379 46.1896C39.1781 46.1896 39.1275 46.1804 39.0861 46.1596C39.0447 46.1412 39.0101 46.1136 38.9848 46.0814C38.9572 46.0492 38.9388 46.0101 38.9273 45.9687C38.9158 45.9273 38.9089 45.8835 38.9089 45.8375V43.0511H38.0622C38.023 43.0511 37.9839 43.0442 37.9471 43.0327C37.9103 43.0212 37.8781 43.0028 37.8528 42.9775C37.8252 42.9545 37.8022 42.9246 37.7861 42.89C37.7699 42.8555 37.7607 42.8164 37.7607 42.775C37.7607 42.7336 37.7676 42.6945 37.7861 42.6599C37.8022 42.6254 37.8252 42.5955 37.8528 42.5725C37.8804 42.5495 37.9126 42.5288 37.9471 42.5173C37.9816 42.5058 38.0207 42.4966 38.0622 42.4966H40.4413C40.4804 42.4966 40.5172 42.5035 40.5541 42.5173C40.5909 42.5311 40.6231 42.5495 40.6507 42.5725C40.6783 42.5955 40.7013 42.6254 40.7174 42.6599C40.7335 42.6945 40.7427 42.7313 40.7427 42.775C40.7427 42.8187 40.7358 42.8578 40.7174 42.8923C40.7013 42.9269 40.6783 42.9545 40.6507 42.9798C40.6231 43.0051 40.5909 43.0212 40.5541 43.0327C40.5172 43.0442 40.4804 43.0511 40.4413 43.0511H39.567Z" fill="#004F9F"/>
<path d="M41.7856 44.5375V45.6028H43.5919C43.631 45.6028 43.6678 45.6097 43.7023 45.6235C43.7368 45.6373 43.7667 45.658 43.792 45.6811C43.8174 45.7041 43.8358 45.734 43.8519 45.7685C43.868 45.803 43.8749 45.8375 43.8749 45.8743C43.8749 45.9111 43.868 45.948 43.8519 45.9802C43.8358 46.0124 43.8174 46.0423 43.792 46.0676C43.7667 46.0906 43.7368 46.1113 43.7023 46.1251C43.6678 46.1389 43.631 46.1458 43.5919 46.1458H41.4566C41.4129 46.1458 41.3692 46.1366 41.3301 46.1205C41.2909 46.1044 41.2564 46.0814 41.2265 46.0515C41.1966 46.0216 41.1736 45.9894 41.1552 45.9503C41.1368 45.9111 41.1299 45.8697 41.1299 45.826V42.8164C41.1299 42.7727 41.1391 42.729 41.1552 42.6922C41.1713 42.6553 41.1966 42.6208 41.2265 42.5909C41.2564 42.561 41.2909 42.538 41.3301 42.5219C41.3692 42.5058 41.4129 42.4966 41.4566 42.4966H43.5919C43.631 42.4966 43.6678 42.5035 43.7023 42.5196C43.7368 42.5357 43.7667 42.5541 43.792 42.5794C43.8174 42.6047 43.8358 42.6346 43.8519 42.6669C43.868 42.6991 43.8749 42.7359 43.8749 42.775C43.8749 42.8141 43.868 42.8486 43.8519 42.8808C43.8358 42.913 43.8174 42.943 43.792 42.9683C43.7667 42.9936 43.7368 43.012 43.7023 43.0281C43.6678 43.0419 43.631 43.0488 43.5919 43.0488H41.7856V43.9807H43.44C43.4791 43.9807 43.5136 43.9876 43.5505 44.0037C43.585 44.0198 43.6149 44.0382 43.6379 44.0635C43.6609 44.0888 43.6839 44.1187 43.6977 44.1509C43.7138 44.1855 43.7207 44.22 43.7207 44.2591C43.7207 44.2982 43.7138 44.3327 43.6977 44.3649C43.6839 44.3994 43.6632 44.4271 43.6379 44.4547C43.6126 44.48 43.5827 44.5007 43.5505 44.5145C43.5159 44.5283 43.4791 44.5352 43.44 44.5352H41.7856V44.5375Z" fill="#004F9F"/>
<path d="M45.6615 42.8184C45.6615 42.7746 45.6707 42.7309 45.6868 42.6941C45.7029 42.6573 45.7282 42.6228 45.7581 42.5929C45.788 42.563 45.8225 42.54 45.8617 42.5238C45.9008 42.5077 45.9445 42.4985 45.9882 42.4985H47.3342C47.5367 42.4985 47.7162 42.5238 47.8704 42.5722C48.0245 42.6205 48.1534 42.6941 48.2592 42.7885C48.3651 42.8828 48.4433 43.0001 48.4962 43.1382C48.5491 43.2762 48.5744 43.435 48.5744 43.6122C48.5744 43.7894 48.5468 43.9412 48.4962 44.0793C48.4433 44.2173 48.3651 44.3324 48.2592 44.4244C48.1557 44.5187 48.0245 44.5901 47.8704 44.6407C47.7162 44.6913 47.5367 44.7143 47.3342 44.712H46.3172V45.8464C46.3172 45.8901 46.3103 45.9338 46.2942 45.9752C46.2781 46.0166 46.2574 46.0512 46.2275 46.0834C46.1976 46.1156 46.1654 46.1409 46.124 46.1593C46.0825 46.1777 46.0388 46.1869 45.9882 46.1869C45.9376 46.1869 45.8916 46.1777 45.8502 46.1593C45.8087 46.1409 45.7765 46.1156 45.7466 46.0834C45.7167 46.0512 45.696 46.0166 45.6822 45.9752C45.6684 45.9338 45.6592 45.8924 45.6592 45.8464V42.8184H45.6615ZM47.1663 44.1667C47.4194 44.1713 47.6104 44.123 47.7369 44.0286C47.8635 43.932 47.9256 43.794 47.9256 43.6122C47.9256 43.4304 47.8635 43.2878 47.7369 43.1934C47.6104 43.0991 47.4194 43.0508 47.1663 43.0508H46.3195V44.1667H47.1663Z" fill="#004F9F"/>
<path d="M52.1946 44.8091C52.1946 45.0438 52.1601 45.2509 52.0934 45.4281C52.0266 45.6053 51.9277 45.7525 51.7966 45.8699C51.6654 45.9872 51.5066 46.0746 51.3157 46.1345C51.127 46.1943 50.9084 46.2242 50.6622 46.2242C50.416 46.2242 50.1836 46.1966 49.988 46.1414C49.7925 46.0861 49.6245 46.001 49.4887 45.886C49.353 45.7709 49.2494 45.6237 49.1781 45.4465C49.1068 45.2693 49.0723 45.0576 49.0723 44.8137V42.8165C49.0723 42.7728 49.0792 42.7291 49.0907 42.6854C49.1022 42.6417 49.1206 42.6049 49.1482 42.5726C49.1735 42.5404 49.208 42.5128 49.2494 42.4944C49.2909 42.476 49.3415 42.4668 49.4013 42.4668C49.4611 42.4668 49.5117 42.476 49.5532 42.4944C49.5946 42.5151 49.6291 42.5404 49.6544 42.5726C49.6797 42.6049 49.7004 42.644 49.7119 42.6854C49.7234 42.7268 49.7303 42.7705 49.7303 42.8165V44.8137C49.7303 45.106 49.8086 45.3245 49.9627 45.4672C50.1169 45.6099 50.3516 45.6812 50.6622 45.6812C50.9544 45.6812 51.173 45.6099 51.318 45.4672C51.4629 45.3245 51.5342 45.106 51.5342 44.8137V42.8165C51.5342 42.7728 51.5389 42.7291 51.5527 42.6854C51.5642 42.6417 51.5826 42.6049 51.6102 42.5726C51.6355 42.5404 51.67 42.5128 51.7114 42.4944C51.7528 42.476 51.8035 42.4668 51.8633 42.4668C51.9231 42.4668 51.9737 42.476 52.0151 42.4944C52.0566 42.5151 52.0911 42.5404 52.1164 42.5726C52.1417 42.6049 52.1624 42.644 52.1739 42.6854C52.1854 42.7268 52.1923 42.7705 52.1923 42.8165V44.8137L52.1946 44.8091Z" fill="#004F9F"/>
<path d="M53.2408 46.1478C53.1971 46.1478 53.1534 46.1386 53.1142 46.1225C53.0751 46.1064 53.0406 46.0834 53.0107 46.0535C52.9808 46.0235 52.9578 45.9913 52.9394 45.9522C52.921 45.9131 52.9141 45.8717 52.9141 45.828V42.8184C52.9141 42.7746 52.9233 42.7309 52.9394 42.6941C52.9555 42.6573 52.9808 42.6228 53.0107 42.5929C53.0406 42.563 53.0751 42.54 53.1142 42.5238C53.1534 42.5077 53.1971 42.4985 53.2408 42.4985H54.4787C54.5891 42.4985 54.6973 42.5054 54.8054 42.5169C54.9113 42.5284 55.0148 42.5515 55.1091 42.5814C55.2035 42.6113 55.2932 42.6504 55.3737 42.6987C55.4543 42.747 55.5233 42.8092 55.5808 42.8805C55.6384 42.9541 55.6844 43.0393 55.7166 43.1382C55.7488 43.2371 55.7649 43.3522 55.7649 43.481C55.7649 43.5478 55.7557 43.6145 55.735 43.6858C55.7143 43.7571 55.6867 43.8262 55.6453 43.8929C55.6061 43.9596 55.5532 44.0217 55.4911 44.0816C55.429 44.1391 55.3553 44.1897 55.2679 44.2288C55.3691 44.2518 55.4635 44.291 55.5486 44.3462C55.6337 44.4037 55.7051 44.4704 55.7672 44.5487C55.8293 44.6269 55.8753 44.7143 55.9099 44.811C55.9421 44.9076 55.9582 45.0065 55.9582 45.1078C55.9582 45.2412 55.9352 45.3701 55.8869 45.4943C55.8385 45.6186 55.7649 45.729 55.6614 45.8257C55.5601 45.9223 55.4267 46.0005 55.2679 46.0581C55.1068 46.1179 54.9136 46.1455 54.6881 46.1455H53.2454L53.2408 46.1478ZM54.4419 44.0125C54.5684 44.0125 54.6743 43.9987 54.7571 43.9688C54.8422 43.9412 54.9113 43.9021 54.9619 43.8561C55.0148 43.8078 55.0516 43.7548 55.0723 43.6927C55.0953 43.6306 55.1045 43.5685 55.1045 43.5017C55.1045 43.4235 55.0907 43.3568 55.0631 43.3016C55.0332 43.244 54.9895 43.198 54.9343 43.1612C54.879 43.1244 54.8123 43.0968 54.7341 43.0784C54.6559 43.06 54.5707 43.0508 54.4741 43.0508H53.5652V44.0125H54.4373H54.4419ZM54.6812 45.6025C54.7801 45.6025 54.8698 45.5887 54.9458 45.5611C55.024 45.5334 55.0884 45.4966 55.1414 45.4506C55.1943 45.4046 55.2357 45.3517 55.261 45.2942C55.2886 45.2343 55.3024 45.1745 55.3024 45.1101C55.3024 45.0088 55.284 44.9214 55.2472 44.8524C55.2104 44.7834 55.1598 44.7258 55.0953 44.6844C55.0309 44.6407 54.955 44.6108 54.8675 44.5947C54.7801 44.5763 54.6858 44.5671 54.5822 44.5671H53.5675V45.6025H54.6789H54.6812Z" fill="#004F9F"/>
<path d="M56.5156 42.8005C56.5156 42.7568 56.5225 42.7131 56.5386 42.6716C56.5547 42.6325 56.5755 42.5957 56.6031 42.5635C56.6307 42.5313 56.6652 42.506 56.7066 42.4876C56.7457 42.4692 56.794 42.46 56.8447 42.46C56.893 42.46 56.9367 42.4692 56.9781 42.4876C57.0172 42.506 57.054 42.5313 57.0817 42.5635C57.1116 42.5957 57.1323 42.6325 57.1484 42.6716C57.1645 42.7131 57.1714 42.7545 57.1714 42.8005V45.603H58.7176C58.7567 45.603 58.7912 45.6099 58.8281 45.6237C58.8626 45.6375 58.8902 45.6582 58.9155 45.6812C58.9408 45.7043 58.9615 45.7342 58.9753 45.7687C58.9891 45.8032 58.9983 45.8377 58.9983 45.8745C58.9983 45.9113 58.9914 45.9482 58.9753 45.9804C58.9592 46.0149 58.9408 46.0425 58.9155 46.0678C58.8902 46.0908 58.8603 46.1115 58.8281 46.1253C58.7935 46.1391 58.7567 46.146 58.7176 46.146H56.8424C56.7963 46.146 56.7549 46.1368 56.7158 46.1207C56.6767 46.1046 56.6422 46.0816 56.6123 46.0517C56.5824 46.0218 56.5593 45.9896 56.5409 45.9505C56.5248 45.9113 56.5156 45.8699 56.5156 45.8262V42.7982V42.8005Z" fill="#004F9F"/>
<path d="M60.0864 45.8329C60.0864 45.8766 60.0795 45.9203 60.068 45.9641C60.0565 46.0055 60.0358 46.0446 60.0105 46.0768C59.9852 46.109 59.9507 46.1366 59.9093 46.155C59.8678 46.1734 59.8172 46.1849 59.7574 46.1849C59.6976 46.1849 59.6469 46.1757 59.6055 46.155C59.5641 46.1366 59.5296 46.109 59.5043 46.0768C59.479 46.0446 59.4583 46.0055 59.4491 45.9641C59.4376 45.9203 59.4307 45.8766 59.4307 45.8329V42.8141C59.4307 42.7704 59.4376 42.7267 59.4491 42.6829C59.4606 42.6392 59.479 42.6024 59.5043 42.5702C59.5296 42.538 59.5641 42.5104 59.6055 42.492C59.6469 42.4736 59.6976 42.4644 59.7574 42.4644C59.8172 42.4644 59.8678 42.4736 59.9093 42.492C59.9507 42.5127 59.9852 42.538 60.0105 42.5702C60.0358 42.6024 60.0565 42.6415 60.068 42.6829C60.0795 42.7244 60.0864 42.7681 60.0864 42.8141V45.8329Z" fill="#004F9F"/>
<path d="M63.3953 44.986C63.4068 44.9423 63.4275 44.9055 63.4528 44.871C63.4804 44.8387 63.5103 44.8134 63.5471 44.7927C63.5839 44.772 63.6208 44.7605 63.6645 44.7559C63.7059 44.7513 63.7496 44.7559 63.791 44.7674C63.8347 44.7789 63.8739 44.7996 63.9061 44.8272C63.9383 44.8549 63.9659 44.8871 63.9843 44.9216C64.0027 44.9584 64.0165 44.9975 64.0211 45.0389C64.0257 45.0803 64.0211 45.1241 64.0096 45.1678C63.959 45.3334 63.89 45.483 63.8025 45.6119C63.7151 45.7407 63.6093 45.8511 63.485 45.9386C63.3608 46.026 63.2181 46.095 63.0547 46.1411C62.8914 46.1871 62.7096 46.2124 62.5094 46.2124C62.2034 46.2124 61.9365 46.1641 61.711 46.0674C61.4832 45.9708 61.2945 45.8396 61.145 45.6717C60.9954 45.5037 60.8827 45.3035 60.8067 45.0757C60.7331 44.8479 60.6963 44.5994 60.6963 44.3348C60.6963 44.1554 60.7147 43.9828 60.7492 43.8194C60.786 43.6538 60.8366 43.5019 60.9057 43.3593C60.9747 43.2166 61.0598 43.0877 61.1634 42.9704C61.2669 42.853 61.3843 42.7541 61.52 42.6713C61.6558 42.5884 61.8053 42.524 61.971 42.4803C62.1367 42.4343 62.3207 42.4136 62.5186 42.4136C62.6843 42.4136 62.843 42.432 62.9926 42.4665C63.1422 42.501 63.2779 42.5562 63.4022 42.6276C63.5264 42.6989 63.6369 42.7886 63.7335 42.8945C63.8278 43.0003 63.9084 43.1269 63.9728 43.2672C63.9889 43.3086 63.9981 43.3524 63.9981 43.3961C63.9981 43.4398 63.9889 43.4789 63.9728 43.518C63.9567 43.5571 63.9337 43.5916 63.9015 43.6216C63.8693 43.6515 63.8347 43.6768 63.791 43.6929C63.7496 43.7113 63.7059 43.7182 63.6645 43.7182C63.6231 43.7182 63.5793 43.7113 63.5425 43.6952C63.5034 43.6791 63.4689 43.6561 63.439 43.6262C63.4068 43.5962 63.3838 43.5594 63.3677 43.518C63.2894 43.327 63.179 43.1844 63.0317 43.0946C62.8845 43.0049 62.7119 42.9589 62.5117 42.9589C62.3783 42.9589 62.2563 42.975 62.1482 43.0095C62.0377 43.044 61.9411 43.0923 61.8559 43.1522C61.7708 43.2143 61.6972 43.2856 61.6328 43.3708C61.5706 43.4536 61.5177 43.5456 61.4763 43.6446C61.4349 43.7435 61.405 43.8493 61.3843 43.9598C61.3636 44.0702 61.3521 44.183 61.3521 44.298C61.3521 44.4844 61.3774 44.6616 61.4234 44.8295C61.4694 44.9975 61.5384 45.1425 61.6328 45.269C61.7271 45.3956 61.849 45.4922 61.994 45.5681C62.1413 45.6418 62.3161 45.6786 62.5186 45.6786C62.6452 45.6786 62.7556 45.6602 62.8546 45.6234C62.9535 45.5865 63.0363 45.5359 63.1076 45.4738C63.179 45.4117 63.2388 45.338 63.2871 45.2552C63.3354 45.1724 63.3723 45.0826 63.3976 44.9906L63.3953 44.986Z" fill="#004F9F"/>
<path d="M68.3836 44.986C68.3951 44.9423 68.4158 44.9055 68.4434 44.871C68.4687 44.8387 68.5009 44.8134 68.5377 44.7927C68.5722 44.772 68.6113 44.7605 68.6551 44.7559C68.6965 44.7513 68.7402 44.7559 68.7816 44.7674C68.823 44.7789 68.8621 44.7996 68.8967 44.8272C68.9312 44.8549 68.9565 44.8871 68.9749 44.9216C68.9933 44.9561 69.0071 44.9975 69.0117 45.0389C69.0163 45.0803 69.0117 45.1241 69.0002 45.1678C68.9496 45.3334 68.8806 45.483 68.7931 45.6119C68.7057 45.7407 68.5998 45.8511 68.4756 45.9386C68.3513 46.026 68.2087 46.095 68.0453 46.1411C67.882 46.1871 67.7002 46.2124 67.4977 46.2124C67.1917 46.2124 66.9248 46.1641 66.6993 46.0674C66.4738 45.9708 66.2828 45.8396 66.1333 45.6717C65.9837 45.5037 65.8709 45.3035 65.795 45.0757C65.7214 44.8479 65.6846 44.5994 65.6846 44.3348C65.6846 44.1554 65.7007 43.9828 65.7375 43.8194C65.772 43.6538 65.8249 43.5019 65.894 43.3593C65.963 43.2166 66.0481 43.0877 66.1517 42.9704C66.2529 42.853 66.3725 42.7541 66.506 42.6713C66.6395 42.5884 66.7913 42.524 66.957 42.4803C67.1249 42.4343 67.3067 42.4136 67.5046 42.4136C67.6703 42.4136 67.829 42.432 67.9763 42.4665C68.1258 42.501 68.2616 42.5562 68.3858 42.6276C68.5101 42.6989 68.6205 42.7886 68.7149 42.8945C68.8115 43.0003 68.8898 43.1269 68.9542 43.2672C68.9726 43.3086 68.9795 43.3524 68.9795 43.3961C68.9795 43.4398 68.9703 43.4789 68.9542 43.518C68.9381 43.5571 68.9151 43.5916 68.8852 43.6216C68.8529 43.6515 68.8184 43.6768 68.7747 43.6929C68.731 43.7113 68.6896 43.7182 68.6459 43.7182C68.6021 43.7182 68.563 43.7113 68.5239 43.6952C68.4848 43.6791 68.4503 43.6561 68.4204 43.6262C68.3904 43.5962 68.3651 43.5594 68.349 43.518C68.2731 43.327 68.1604 43.1844 68.0131 43.0946C67.8658 43.0049 67.6933 42.9589 67.4931 42.9589C67.3596 42.9589 67.24 42.975 67.1295 43.0095C67.0191 43.044 66.9225 43.0923 66.8373 43.1522C66.7522 43.2143 66.6786 43.2856 66.6164 43.3708C66.5543 43.4536 66.5014 43.5456 66.46 43.6446C66.4186 43.7435 66.3886 43.8493 66.3656 43.9598C66.3449 44.0702 66.3357 44.183 66.3357 44.298C66.3357 44.4844 66.3587 44.6616 66.4071 44.8295C66.4531 44.9975 66.5221 45.1425 66.6164 45.269C66.7108 45.3956 66.8304 45.4922 66.9777 45.5681C67.1249 45.6418 67.2998 45.6786 67.5023 45.6786C67.6288 45.6786 67.7393 45.6602 67.8382 45.6234C67.9349 45.5865 68.02 45.5359 68.0913 45.4738C68.1627 45.4117 68.2225 45.338 68.2708 45.2552C68.3191 45.1724 68.3559 45.0826 68.3812 44.9906L68.3836 44.986Z" fill="#004F9F"/>
<path d="M69.3291 44.3235C69.3291 44.1578 69.3452 43.9944 69.3797 43.8357C69.4119 43.6769 69.4649 43.5251 69.5316 43.3847C69.6006 43.242 69.6834 43.1132 69.7847 42.9935C69.8859 42.8739 70.0056 42.7727 70.1413 42.6875C70.2771 42.6024 70.4289 42.5357 70.5992 42.4873C70.7695 42.439 70.9582 42.416 71.1629 42.416C71.3677 42.416 71.5587 42.439 71.7313 42.4873C71.9038 42.5357 72.058 42.6024 72.1937 42.6875C72.3318 42.7727 72.4515 42.8739 72.5527 42.9935C72.6562 43.1132 72.7414 43.242 72.8081 43.3847C72.8771 43.5274 72.9277 43.6769 72.9623 43.8357C72.9968 43.9944 73.0129 44.1578 73.0129 44.3235C73.0129 44.4891 72.9968 44.6525 72.9623 44.8113C72.9277 44.97 72.8771 45.1173 72.8081 45.2577C72.7414 45.398 72.6562 45.5269 72.5527 45.6442C72.4515 45.7616 72.3318 45.8628 72.1937 45.9479C72.058 46.0308 71.9015 46.0975 71.7313 46.1458C71.5587 46.1941 71.37 46.2171 71.1629 46.2171C70.9559 46.2171 70.7695 46.1941 70.5992 46.1458C70.4289 46.0975 70.2771 46.0331 70.1413 45.9479C70.0056 45.8651 69.8859 45.7639 69.7847 45.6442C69.6834 45.5269 69.5983 45.398 69.5316 45.2577C69.4649 45.1173 69.4142 44.9677 69.3797 44.8113C69.3452 44.6525 69.3291 44.4914 69.3291 44.3235ZM69.9872 44.3235C69.9872 44.4362 69.9964 44.5467 70.0171 44.6571C70.0355 44.7676 70.0654 44.8734 70.1068 44.9723C70.1482 45.0736 70.1988 45.1656 70.2633 45.2508C70.3254 45.3359 70.4013 45.4095 70.4888 45.4739C70.5762 45.5384 70.6751 45.5867 70.7879 45.6235C70.9006 45.658 71.0272 45.6764 71.1675 45.6764C71.3079 45.6764 71.439 45.658 71.5541 45.6235C71.6691 45.589 71.7704 45.5384 71.8601 45.4739C71.9475 45.4118 72.0235 45.3359 72.0879 45.2508C72.15 45.1656 72.203 45.0713 72.2444 44.9723C72.2858 44.8734 72.3157 44.7653 72.3341 44.6571C72.3525 44.5467 72.364 44.4362 72.364 44.3235C72.364 44.2107 72.3548 44.1003 72.3341 43.9898C72.3134 43.8794 72.2858 43.7713 72.2444 43.6723C72.203 43.5734 72.1523 43.479 72.0879 43.3916C72.0235 43.3042 71.9475 43.2305 71.8601 43.1661C71.7727 43.1017 71.6691 43.0534 71.5541 43.0166C71.439 42.9797 71.3102 42.9613 71.1675 42.9613C71.0249 42.9613 70.9006 42.9797 70.7879 43.0166C70.6751 43.0534 70.5762 43.1017 70.4888 43.1661C70.4013 43.2282 70.3254 43.3042 70.2633 43.3916C70.2011 43.479 70.1482 43.5711 70.1068 43.6723C70.0677 43.7736 70.0355 43.8794 70.0171 43.9898C69.9987 44.1003 69.9872 44.213 69.9872 44.3235Z" fill="#004F9F"/>
<path d="M77.355 45.8516C77.355 45.8953 77.3481 45.939 77.3389 45.9804C77.3274 46.0219 77.3067 46.0587 77.2814 46.0932C77.2538 46.1254 77.2193 46.153 77.1802 46.1714C77.1387 46.1898 77.0858 46.199 77.0283 46.199C76.9708 46.199 76.9179 46.1898 76.8764 46.1714C76.835 46.1507 76.8005 46.1254 76.7752 46.0932C76.7499 46.061 76.7292 46.0219 76.7177 45.9804C76.7062 45.939 76.6993 45.8953 76.6993 45.8516V43.5714L75.7858 45.9989C75.7605 46.0679 75.7145 46.1185 75.6547 46.1507C75.5925 46.1829 75.5235 46.199 75.4453 46.199C75.367 46.199 75.3003 46.1829 75.2405 46.1507C75.1784 46.1185 75.1369 46.0679 75.1093 45.9966L74.1936 43.5691V45.8493C74.1936 45.893 74.1867 45.9367 74.1752 45.9782C74.1637 46.0196 74.1429 46.0564 74.1176 46.0909C74.0923 46.1231 74.0578 46.1507 74.0164 46.1691C73.975 46.1875 73.9244 46.1967 73.8645 46.1967C73.8047 46.1967 73.7541 46.1875 73.7127 46.1691C73.6713 46.1484 73.6367 46.1231 73.6091 46.0909C73.5838 46.0587 73.5631 46.0196 73.5516 45.9782C73.5401 45.9367 73.5332 45.893 73.5332 45.8493V42.9271C73.5332 42.8604 73.5447 42.8006 73.5677 42.7477C73.5907 42.6947 73.6229 42.6464 73.6644 42.6096C73.7058 42.5705 73.7564 42.5406 73.8139 42.5199C73.8714 42.4992 73.9359 42.4877 74.0072 42.4877C74.1176 42.4877 74.212 42.5153 74.2856 42.5705C74.3615 42.6257 74.4168 42.6993 74.4513 42.7891L75.4499 45.4696L76.3771 42.8098C76.4094 42.7131 76.4692 42.6349 76.552 42.5751C76.6348 42.5153 76.7338 42.4854 76.8534 42.4854C76.9294 42.4854 76.9984 42.4969 77.0605 42.5199C77.1226 42.5429 77.1756 42.5751 77.2216 42.6165C77.2653 42.6579 77.2998 42.7085 77.3251 42.7661C77.3481 42.8259 77.3619 42.8903 77.3619 42.9593V45.8493L77.355 45.8516Z" fill="#004F9F"/>
<path d="M78.0732 42.8184C78.0732 42.7746 78.0824 42.7309 78.0986 42.6941C78.117 42.655 78.14 42.6228 78.1699 42.5929C78.1998 42.563 78.2343 42.54 78.2734 42.5238C78.3125 42.5077 78.3563 42.4985 78.4 42.4985H79.746C79.9485 42.4985 80.128 42.5238 80.2821 42.5722C80.4363 42.6205 80.5651 42.6941 80.671 42.7885C80.7768 42.8828 80.8551 43.0001 80.908 43.1382C80.9609 43.2762 80.9862 43.435 80.9862 43.6122C80.9862 43.7894 80.9586 43.9412 80.908 44.0793C80.8551 44.2173 80.7745 44.3324 80.671 44.4244C80.5674 44.5187 80.4363 44.5901 80.2821 44.6407C80.128 44.6913 79.9485 44.7143 79.746 44.712H78.729V45.8464C78.729 45.8901 78.7221 45.9338 78.706 45.9752C78.6899 46.0166 78.6669 46.0512 78.6393 46.0834C78.6094 46.1156 78.5771 46.1409 78.5357 46.1593C78.4943 46.1777 78.4483 46.1869 78.4 46.1869C78.3517 46.1869 78.3033 46.1777 78.2619 46.1593C78.2228 46.1409 78.1883 46.1156 78.1607 46.0834C78.1331 46.0512 78.1101 46.0166 78.0963 45.9752C78.0801 45.9338 78.0732 45.8924 78.0732 45.8464V42.8184ZM79.578 44.1667C79.8311 44.1713 80.0221 44.123 80.1487 44.0286C80.2752 43.932 80.3373 43.794 80.3373 43.6122C80.3373 43.4304 80.2752 43.2878 80.1487 43.1934C80.0221 43.0991 79.8334 43.0508 79.578 43.0508H78.729V44.1667H79.578Z" fill="#004F9F"/>
<path d="M83.2701 45.1243H81.8482L81.5283 46.0056C81.5076 46.0654 81.4731 46.1091 81.4225 46.1344C81.3719 46.1597 81.3098 46.1735 81.2292 46.1735C81.1832 46.1735 81.1418 46.1666 81.105 46.1528C81.0682 46.139 81.0336 46.1206 81.006 46.0976C80.9784 46.0746 80.9577 46.0447 80.9439 46.0102C80.9278 45.9756 80.9209 45.9365 80.9209 45.8951C80.9209 45.8767 80.9209 45.8537 80.9278 45.8284C80.9324 45.8031 80.9393 45.7778 80.9462 45.7524C80.9531 45.7271 80.9623 45.7018 80.9692 45.6788C80.9761 45.6558 80.9853 45.6328 80.9922 45.6144L82.1174 42.7313C82.1519 42.6439 82.1979 42.5818 82.2577 42.545C82.3176 42.5082 82.3866 42.4897 82.474 42.4897H82.6466C82.6857 42.4897 82.7248 42.492 82.7616 42.4989C82.7984 42.5059 82.833 42.5174 82.8652 42.5358C82.8974 42.5542 82.9273 42.5795 82.9549 42.6117C82.9825 42.6439 83.0055 42.6853 83.0262 42.7382L84.1606 45.5776C84.1675 45.5983 84.1767 45.6213 84.1859 45.6466C84.1951 45.6719 84.2043 45.6972 84.2112 45.7248C84.2181 45.7524 84.2273 45.7801 84.2319 45.8054C84.2388 45.8307 84.2411 45.8537 84.2411 45.8744C84.2411 45.9204 84.2342 45.9595 84.2181 45.9963C84.202 46.0332 84.179 46.0654 84.1491 46.0907C84.1192 46.116 84.0847 46.1367 84.0432 46.1505C84.0041 46.1643 83.9581 46.1712 83.9098 46.1712C83.8247 46.1712 83.7556 46.1574 83.7027 46.1275C83.6498 46.0976 83.6107 46.0539 83.5877 45.9894L83.2678 45.1197L83.2701 45.1243ZM83.0492 44.5652L82.5568 43.2237L82.076 44.5652H83.0469H83.0492Z" fill="#004F9F"/>
<path d="M84.7432 42.8964C84.7432 42.8342 84.7524 42.779 84.7708 42.7238C84.7892 42.6709 84.8168 42.6226 84.8536 42.5834C84.8904 42.5443 84.9387 42.5121 84.994 42.4891C85.0492 42.4661 85.1159 42.4546 85.1918 42.4546C85.2678 42.4546 85.3368 42.4707 85.4081 42.5052C85.4795 42.5374 85.5347 42.588 85.5807 42.6548L87.1752 45.2249V42.8066C87.1752 42.6893 87.2028 42.6018 87.2604 42.542C87.3179 42.4822 87.3984 42.4546 87.502 42.4546C87.6055 42.4546 87.686 42.4845 87.7459 42.542C87.8057 42.5995 87.8333 42.687 87.8333 42.8066V45.7334C87.8333 45.883 87.7965 45.998 87.7229 46.0785C87.6492 46.1591 87.5457 46.1982 87.4145 46.1982C87.357 46.1982 87.3041 46.1913 87.2558 46.1775C87.2075 46.1637 87.166 46.1453 87.1269 46.12C87.0878 46.0946 87.0556 46.067 87.0257 46.0348C86.9958 46.0026 86.9705 45.9681 86.9474 45.9336L85.4035 43.4509V45.853C85.4035 45.9704 85.3759 46.0578 85.3184 46.1131C85.2609 46.1683 85.1803 46.1959 85.0768 46.1959C84.9733 46.1959 84.8927 46.1683 84.8329 46.1131C84.7731 46.0578 84.7455 45.9704 84.7455 45.853V42.8964H84.7432Z" fill="#004F9F"/>
<path d="M90.1527 45.8371C90.1527 45.8808 90.1458 45.9245 90.1343 45.9682C90.1205 46.0097 90.1021 46.0488 90.0768 46.081C90.0514 46.1132 90.0169 46.1408 89.9755 46.1592C89.9341 46.1799 89.8835 46.1891 89.8237 46.1891C89.7638 46.1891 89.7132 46.1799 89.6695 46.1592C89.6281 46.1408 89.5936 46.1132 89.5659 46.081C89.5383 46.0488 89.5199 46.0097 89.5084 45.9682C89.4946 45.9268 89.49 45.8831 89.49 45.8371V44.682L88.3534 42.9425C88.3188 42.8873 88.3004 42.8298 88.2981 42.7723C88.2958 42.7147 88.3073 42.6618 88.3327 42.6158C88.358 42.5698 88.3971 42.5307 88.45 42.5007C88.5006 42.4708 88.5627 42.457 88.6341 42.457C88.6755 42.457 88.7123 42.4616 88.7422 42.4685C88.7721 42.4754 88.802 42.4892 88.8273 42.5053C88.8504 42.5215 88.8757 42.5422 88.8941 42.5675C88.9125 42.5905 88.9332 42.6204 88.9562 42.6526L89.8237 44.1045L90.7118 42.6457C90.7325 42.6135 90.7509 42.5882 90.7716 42.5652C90.7923 42.5422 90.813 42.5215 90.8384 42.5053C90.8614 42.4892 90.889 42.4777 90.9189 42.4685C90.9511 42.4616 90.9856 42.457 91.0247 42.457C91.0569 42.457 91.0915 42.4616 91.1306 42.4731C91.1697 42.4846 91.2042 42.5007 91.2364 42.5238C91.2686 42.5468 91.2962 42.579 91.3192 42.6158C91.3423 42.6526 91.3515 42.6986 91.3515 42.7562C91.3515 42.7838 91.3469 42.8137 91.3354 42.8413C91.3262 42.8689 91.3123 42.8988 91.2939 42.9241L90.1573 44.6751V45.8371H90.1527Z" fill="#004F9F"/>
<path d="M93.1113 42.8005C93.1113 42.7568 93.1182 42.7131 93.1343 42.6716C93.1504 42.6325 93.1711 42.5957 93.1988 42.5635C93.2264 42.5313 93.2609 42.506 93.3023 42.4876C93.3414 42.4692 93.3897 42.46 93.4404 42.46C93.4887 42.46 93.5324 42.4692 93.5738 42.4876C93.6129 42.506 93.6497 42.5313 93.6774 42.5635C93.7073 42.5957 93.728 42.6325 93.7441 42.6716C93.7602 42.7131 93.7671 42.7545 93.7671 42.8005V45.603H95.3133C95.3524 45.603 95.3869 45.6099 95.4237 45.6237C95.4583 45.6375 95.4859 45.6582 95.5112 45.6812C95.5365 45.7043 95.5572 45.7342 95.571 45.7687C95.5848 45.8032 95.594 45.8377 95.594 45.8745C95.594 45.9113 95.5871 45.9482 95.571 45.9804C95.5549 46.0149 95.5365 46.0425 95.5112 46.0678C95.4859 46.0908 95.456 46.1115 95.4237 46.1253C95.3892 46.1391 95.3524 46.146 95.3133 46.146H93.4381C93.392 46.146 93.3506 46.1368 93.3115 46.1207C93.2724 46.1046 93.2379 46.0816 93.208 46.0517C93.1781 46.0218 93.155 45.9896 93.1366 45.9505C93.1205 45.9113 93.1113 45.8699 93.1113 45.8262V42.7982V42.8005Z" fill="#004F9F"/>
<path d="M96.6821 45.8329C96.6821 45.8766 96.6752 45.9203 96.6637 45.9641C96.6522 46.0055 96.6315 46.0446 96.6062 46.0768C96.5809 46.109 96.5464 46.1366 96.505 46.155C96.4635 46.1734 96.4129 46.1849 96.3531 46.1849C96.2933 46.1849 96.2427 46.1757 96.2012 46.155C96.1598 46.1366 96.1253 46.109 96.1 46.0768C96.0747 46.0446 96.054 46.0055 96.0448 45.9641C96.0333 45.9203 96.0264 45.8766 96.0264 45.8329V42.8141C96.0264 42.7704 96.0333 42.7267 96.0448 42.6829C96.0563 42.6392 96.0747 42.6024 96.1 42.5702C96.1253 42.538 96.1598 42.5104 96.2012 42.492C96.2427 42.4736 96.2933 42.4644 96.3531 42.4644C96.4129 42.4644 96.4635 42.4736 96.505 42.492C96.5464 42.5127 96.5809 42.538 96.6062 42.5702C96.6315 42.6024 96.6522 42.6415 96.6637 42.6829C96.6752 42.7244 96.6821 42.7681 96.6821 42.8141V45.8329Z" fill="#004F9F"/>
<path d="M101.283 45.8516C101.283 45.8953 101.276 45.939 101.267 45.9804C101.255 46.0219 101.234 46.0587 101.209 46.0932C101.182 46.1254 101.147 46.153 101.108 46.1714C101.066 46.1898 101.014 46.199 100.956 46.199C100.899 46.199 100.846 46.1898 100.804 46.1714C100.763 46.1507 100.728 46.1254 100.703 46.0932C100.678 46.061 100.657 46.0219 100.645 45.9804C100.634 45.939 100.627 45.8953 100.627 45.8516V43.5714L99.7135 45.9989C99.6882 46.0679 99.6422 46.1185 99.5824 46.1507C99.5203 46.1829 99.4512 46.199 99.373 46.199C99.2948 46.199 99.228 46.1829 99.1682 46.1507C99.1061 46.1185 99.0647 46.0679 99.0371 45.9966L98.1213 43.5691V45.8493C98.1213 45.893 98.1144 45.9367 98.1029 45.9782C98.0914 46.0196 98.0707 46.0564 98.0454 46.0909C98.0201 46.1231 97.9855 46.1507 97.9441 46.1691C97.9027 46.1875 97.8521 46.1967 97.7923 46.1967C97.7324 46.1967 97.6818 46.1875 97.6404 46.1691C97.599 46.1484 97.5645 46.1231 97.5369 46.0909C97.5116 46.0587 97.4908 46.0196 97.4793 45.9782C97.4678 45.9367 97.4609 45.893 97.4609 45.8493V42.9271C97.4609 42.8604 97.4724 42.8006 97.4954 42.7477C97.5185 42.6947 97.5507 42.6464 97.5921 42.6096C97.6335 42.5705 97.6841 42.5406 97.7417 42.5199C97.7992 42.4992 97.8636 42.4877 97.9349 42.4877C98.0454 42.4877 98.1397 42.5153 98.2133 42.5705C98.2893 42.6257 98.3445 42.6993 98.379 42.7891L99.3776 45.4696L100.305 42.8098C100.337 42.7131 100.397 42.6349 100.48 42.5751C100.563 42.5153 100.662 42.4854 100.781 42.4854C100.857 42.4854 100.926 42.4969 100.988 42.5199C101.05 42.5429 101.103 42.5751 101.149 42.6165C101.193 42.6579 101.228 42.7085 101.253 42.7661C101.276 42.8259 101.29 42.8903 101.29 42.9593V45.8493L101.283 45.8516Z" fill="#004F9F"/>
<path d="M102.71 45.8329C102.71 45.8766 102.704 45.9203 102.694 45.9641C102.683 46.0055 102.662 46.0446 102.637 46.0768C102.612 46.109 102.577 46.1366 102.536 46.155C102.494 46.1734 102.441 46.1849 102.384 46.1849C102.326 46.1849 102.273 46.1757 102.232 46.155C102.19 46.1366 102.156 46.109 102.131 46.0768C102.105 46.0446 102.085 46.0055 102.073 45.9641C102.062 45.9203 102.055 45.8766 102.055 45.8329V42.8141C102.055 42.7704 102.062 42.7267 102.073 42.6829C102.085 42.6392 102.105 42.6024 102.131 42.5702C102.156 42.538 102.19 42.5104 102.232 42.492C102.273 42.4736 102.324 42.4644 102.384 42.4644C102.444 42.4644 102.494 42.4736 102.536 42.492C102.577 42.5127 102.612 42.538 102.637 42.5702C102.662 42.6024 102.683 42.6415 102.694 42.6829C102.706 42.7244 102.71 42.7681 102.71 42.8141V45.8329Z" fill="#004F9F"/>
<path d="M104.961 43.0511V45.8375C104.961 45.8812 104.954 45.925 104.943 45.9687C104.931 46.0124 104.911 46.0492 104.885 46.0814C104.86 46.1136 104.825 46.1412 104.784 46.1596C104.743 46.1804 104.692 46.1896 104.632 46.1896C104.572 46.1896 104.522 46.1804 104.48 46.1596C104.439 46.1412 104.404 46.1136 104.379 46.0814C104.354 46.0492 104.333 46.0101 104.321 45.9687C104.31 45.9273 104.305 45.8835 104.305 45.8375V43.0511H103.456C103.417 43.0511 103.378 43.0442 103.344 43.0327C103.307 43.0212 103.275 43.0028 103.249 42.9775C103.222 42.9545 103.199 42.9246 103.183 42.89C103.166 42.8555 103.157 42.8164 103.157 42.775C103.157 42.7336 103.164 42.6945 103.183 42.6599C103.199 42.6254 103.222 42.5955 103.249 42.5725C103.277 42.5495 103.309 42.5288 103.344 42.5173C103.378 42.5058 103.417 42.4966 103.456 42.4966H105.836C105.875 42.4966 105.911 42.5035 105.948 42.5173C105.985 42.5311 106.017 42.5495 106.045 42.5725C106.072 42.5955 106.093 42.6254 106.112 42.6599C106.13 42.6945 106.137 42.7313 106.137 42.775C106.137 42.8187 106.13 42.8578 106.112 42.8923C106.096 42.9269 106.072 42.9545 106.045 42.9798C106.017 43.0028 105.985 43.0212 105.948 43.0327C105.911 43.0442 105.875 43.0511 105.836 43.0511H104.961Z" fill="#004F9F"/>
<path d="M107.179 44.5375V45.6028H108.985C109.025 45.6028 109.061 45.6097 109.096 45.6235C109.13 45.6373 109.158 45.658 109.183 45.6811C109.209 45.7041 109.229 45.734 109.243 45.7685C109.257 45.803 109.266 45.8375 109.266 45.8743C109.266 45.9111 109.259 45.948 109.243 45.9802C109.227 46.0124 109.209 46.0423 109.183 46.0676C109.158 46.0906 109.128 46.1113 109.096 46.1251C109.061 46.1389 109.025 46.1458 108.985 46.1458H106.85C106.806 46.1458 106.763 46.1366 106.724 46.1205C106.685 46.1044 106.648 46.0814 106.62 46.0515C106.59 46.0216 106.565 45.9894 106.549 45.9503C106.53 45.9111 106.523 45.8697 106.523 45.826V42.8164C106.523 42.7727 106.53 42.729 106.549 42.6922C106.565 42.653 106.59 42.6208 106.62 42.5909C106.65 42.561 106.685 42.538 106.724 42.5219C106.763 42.5058 106.806 42.4966 106.85 42.4966H108.985C109.025 42.4966 109.061 42.5035 109.096 42.5196C109.13 42.5357 109.158 42.5541 109.183 42.5794C109.209 42.6047 109.229 42.6346 109.243 42.6669C109.257 42.6991 109.266 42.7359 109.266 42.775C109.266 42.8141 109.259 42.8486 109.243 42.8808C109.227 42.913 109.209 42.943 109.183 42.9683C109.158 42.9936 109.128 43.012 109.096 43.0281C109.061 43.0419 109.025 43.0488 108.985 43.0488H107.179V43.9807H108.834C108.873 43.9807 108.909 43.9876 108.944 44.0037C108.979 44.0198 109.008 44.0382 109.031 44.0635C109.057 44.0888 109.077 44.1187 109.091 44.1509C109.105 44.1832 109.114 44.22 109.114 44.2591C109.114 44.2982 109.107 44.3327 109.091 44.3649C109.075 44.3971 109.057 44.4271 109.031 44.4547C109.008 44.48 108.976 44.5007 108.944 44.5145C108.909 44.5283 108.873 44.5352 108.834 44.5352H107.179V44.5375Z" fill="#004F9F"/>
<path d="M110.086 46.1478C110.04 46.1478 109.998 46.1386 109.959 46.1225C109.92 46.1064 109.885 46.0834 109.855 46.0535C109.826 46.0235 109.803 45.9913 109.784 45.9522C109.768 45.9131 109.759 45.8717 109.759 45.828V42.8184C109.759 42.7746 109.768 42.7309 109.784 42.6941C109.803 42.655 109.826 42.6228 109.855 42.5929C109.885 42.563 109.92 42.54 109.959 42.5238C109.998 42.5077 110.042 42.4985 110.086 42.4985H111.08C111.379 42.4985 111.643 42.5354 111.873 42.6067C112.103 42.678 112.299 42.7862 112.455 42.9288C112.612 43.0738 112.734 43.2532 112.814 43.4695C112.895 43.6858 112.936 43.9412 112.936 44.2334C112.936 44.5395 112.9 44.811 112.828 45.0503C112.757 45.2896 112.646 45.4897 112.495 45.6508C112.343 45.8142 112.149 45.9361 111.917 46.0212C111.685 46.1064 111.404 46.1478 111.08 46.1478H110.086ZM111.119 45.6025C111.172 45.6025 111.236 45.5979 111.314 45.591C111.392 45.5841 111.475 45.5634 111.563 45.5357C111.65 45.5058 111.735 45.4644 111.823 45.4069C111.91 45.3517 111.986 45.2757 112.057 45.1791C112.126 45.0825 112.184 44.9651 112.225 44.8225C112.267 44.6798 112.29 44.5095 112.29 44.3071C112.29 44.1046 112.269 43.9297 112.228 43.7732C112.186 43.6168 112.12 43.4856 112.027 43.3775C111.935 43.2693 111.816 43.1888 111.671 43.1336C111.524 43.0784 111.346 43.0508 111.137 43.0508H110.417V45.6025H111.121H111.119Z" fill="#004F9F"/>
</g>
<defs>
<linearGradient id="paint0_linear_1281_3298" x1="23.0969" y1="-15.6453" x2="93.6316" y2="54.8894" gradientUnits="userSpaceOnUse">
<stop offset="0.4" stop-color="#E30613"/>
<stop offset="0.5" stop-color="#6D2B5B"/>
<stop offset="0.57" stop-color="#1E458B"/>
<stop offset="0.6" stop-color="#004F9F"/>
</linearGradient>
<clipPath id="clip0_1281_3298">
<rect width="118.249" height="46" fill="white" transform="translate(0 0.224121)"/>
</clipPath>
</defs>
</svg>
